<svg id="Header_BG_Logo" data-name="Header BG Logo" xmlns="http://www.w3.org/2000/svg" width="666.484" height="766.027" viewBox="0 0 666.484 766.027">
  <g id="Group_299" data-name="Group 299">
    <path id="Path_2505" data-name="Path 2505" d="M1223.244,809.862a5.081,5.081,0,0,1-.106,1.106c.026.026,0,.079,0,.105a.5.5,0,0,1-.053.211.728.728,0,0,1-.079.342,4.21,4.21,0,0,1-.421,1.264,5.092,5.092,0,0,1-.5,1l.026.026a7.73,7.73,0,0,1-2.766,2.765L893.571,1004.09a8.175,8.175,0,0,1-7.717,0L561.184,816.683a6.819,6.819,0,0,1-2.765-2.765l.053-.026a7.2,7.2,0,0,1-1.159-4.029L556.76,434a7.584,7.584,0,0,1,3.871-6.637l325.776-187.38a8.334,8.334,0,0,1,3.687-.948h.026a5.683,5.683,0,0,1,.922.079h.105a6.59,6.59,0,0,1,.764.132,7.71,7.71,0,0,1,2.238.737l11.614,6.637v.342l312.845,180.586a7.479,7.479,0,0,1,3.871,6.637l.738,360.408V796.9Z" transform="translate(-556.76 -239.03)" fill="#fff" opacity="0.14"/>
    <path id="Path_2609" data-name="Path 2609" d="M1163.734,759.88a4.645,4.645,0,0,1-.1,1.009c.024.024,0,.072,0,.1a.451.451,0,0,1-.048.192.665.665,0,0,1-.072.312,3.849,3.849,0,0,1-.384,1.153,4.647,4.647,0,0,1-.456.913l.024.024a7.046,7.046,0,0,1-2.518,2.523L863.5,937.1a7.432,7.432,0,0,1-7.027,0l-295.68-171a6.216,6.216,0,0,1-2.518-2.523l.048-.024a6.578,6.578,0,0,1-1.055-3.677l-.5-342.956a6.922,6.922,0,0,1,3.526-6.056L856.973,239.9a7.579,7.579,0,0,1,3.358-.865h.024a5.166,5.166,0,0,1,.839.072h.1a5.992,5.992,0,0,1,.7.12,7.012,7.012,0,0,1,2.039.673l10.577,6.056v.312l284.911,164.774a6.826,6.826,0,0,1,3.526,6.056l.672,328.851v2.115Z" transform="translate(-527.005 -205.896)" fill="#fff" opacity="0.14"/>
  </g>
  <g id="Logo_Center" data-name="Logo Center" transform="translate(65.833 75.473)">
    <g id="Group_6" data-name="Group 6">
      <g id="Group_1" data-name="Group 1">
        <path id="Path_1" data-name="Path 1" d="M754.25,699.617a6.033,6.033,0,0,1-3.105,5.323l-13.013,7.541L486.9,567.42,235.962,712.482l-13.013-7.541a6.033,6.033,0,0,1-3.105-5.323L219.4,397.96a6.033,6.033,0,0,1,3.105-5.323L483.942,242.251a6.6,6.6,0,0,1,6.211,0l9.316,5.323-.148,292.637L754.25,687.344Z" transform="translate(-219.4 -241.475)" fill="#6d81d5"/>
      </g>
      <g id="Group_2" data-name="Group 2" transform="translate(1.331 307.461)">
        <path id="Path_2" data-name="Path 2" d="M752.932,603.334a6.369,6.369,0,0,1-2.218,2.218L489.278,755.937a6.6,6.6,0,0,1-6.211,0L222.518,605.552a5.333,5.333,0,0,1-2.218-2.218L486.468,449.4Z" transform="translate(-220.3 -449.4)" fill="#2944ae"/>
      </g>
      <g id="Group_3" data-name="Group 3" transform="translate(1.331 307.461)">
        <path id="Path_3" data-name="Path 3" d="M752.932,603.334a6.369,6.369,0,0,1-2.218,2.218L489.278,755.937a6.6,6.6,0,0,1-6.211,0L222.518,605.552a5.333,5.333,0,0,1-2.218-2.218L486.468,449.4Z" transform="translate(-220.3 -449.4)" fill="#2944ae"/>
      </g>
      <path id="Path_4" data-name="Path 4" d="M594.085,533.882v.3L457.008,613.585a18.287,18.287,0,0,1-18.632,0L301.3,534.178v-.148L447.84,449.3Z" transform="translate(-180.193 -141.986)" fill="#213993"/>
      <g id="Group_4" data-name="Group 4" transform="translate(236.742 307.314)">
        <path id="Path_5" data-name="Path 5" d="M676.721,603.382A6.368,6.368,0,0,1,674.5,605.6L413.067,755.985a6.6,6.6,0,0,1-6.211,0L379.5,740.163,607.222,609.149a6.243,6.243,0,0,0,0-10.795L379.648,466.9h0l30.461-17.6Z" transform="translate(-379.5 -449.3)" fill="#213993"/>
      </g>
      <g id="Group_5" data-name="Group 5" transform="translate(267.351 0.037)">
        <path id="Path_6" data-name="Path 6" d="M667.7,699.605a5.466,5.466,0,0,1-.887,3.105L400.2,548.924l.148-307.424a5.819,5.819,0,0,1,3.105.887L664,392.772a6.033,6.033,0,0,1,3.105,5.323Z" transform="translate(-400.2 -241.5)" fill="#5169cd"/>
      </g>
      <path id="Path_7" data-name="Path 7" d="M667.651,699.605a5.467,5.467,0,0,1-.887,3.105l-37.411-21.589V416.875L400.3,284.235V241.5a6.211,6.211,0,0,1,3.105.887L663.955,392.772a6.033,6.033,0,0,1,3.105,5.323Z" transform="translate(-132.801 -241.463)" fill="#3351c5"/>
    </g>
    <g id="Group_11" data-name="Group 11" transform="translate(112.739 74.416)">
      <g id="Group_7" data-name="Group 7" transform="translate(80.085 381.212)">
        <path id="Path_8" data-name="Path 8" d="M380.114,572.816a15.657,15.657,0,0,0,4.584-.739,15.553,15.553,0,0,1,10.351.148,13.737,13.737,0,0,0,4.288.739,13.182,13.182,0,0,0,7.689-2.366,15.873,15.873,0,0,1,9.316-2.957h3.4v-2.218l8.281.148a2.506,2.506,0,0,0,2.662,2.366h1.775l.148-11.977h-1.774a2.506,2.506,0,0,0-2.662,2.366l-8.281-.148v-2.514h-3.4a16.008,16.008,0,0,1-9.316-3.105,13.275,13.275,0,0,0-7.689-2.514,15.656,15.656,0,0,0-4.584.739,15.116,15.116,0,0,1-10.2-.148,13.737,13.737,0,0,0-4.288-.739,15.655,15.655,0,0,0-4.584.739,15.507,15.507,0,0,1-10.647-.148,15.757,15.757,0,0,0-4.584-.887,13.182,13.182,0,0,0-7.689,2.366h0a6.9,6.9,0,0,0-3.105,5.619v6.654a7.148,7.148,0,0,0,2.957,5.619h0a13.275,13.275,0,0,0,7.689,2.514,15.657,15.657,0,0,0,4.584-.739,15.507,15.507,0,0,1,10.647.148A8.931,8.931,0,0,0,380.114,572.816Z" transform="translate(-349.8 -549.6)" fill="#26d192"/>
      </g>
      <path id="Path_9" data-name="Path 9" d="M519.309,443.747C458.091,403.97,448.627,360.2,448.627,360.2s-5.619,43.622-66.986,83.547c-61.219,39.777-88.871,67.429-85.765,119.48s52.051,67.429,52.051,67.429h204.95s48.945-15.379,52.051-67.429C608.18,511.177,580.676,483.525,519.309,443.747Z" transform="translate(-295.641 -259.056)" fill="#213993"/>
      <g id="Group_8" data-name="Group 8" transform="translate(78.015)">
        <path id="Path_10" data-name="Path 10" d="M471.872,600.851c-5.915-8.281-15.083-37.559-19.223-51.459-1.331-4.584-2.218-7.541-2.218-7.541-.148,0-.3-.148-.444-.148-.739-2.81-1.331-5.471-1.774-7.541a17.831,17.831,0,0,0,8.872-15.379h-10.5a15.488,15.488,0,0,0,.739-4.436A20.391,20.391,0,0,0,445.7,506.8l26.469-19.667L462.7,475.6l-21.737,23.807a32.9,32.9,0,0,0-3.993-3.845,19.766,19.766,0,0,1-7.541-15.527,20.175,20.175,0,0,1,6.8-15.379,15.322,15.322,0,0,0,0-23.955,20.175,20.175,0,0,1-6.8-15.379V420.3a20.175,20.175,0,0,1,6.8-15.379,15.322,15.322,0,0,0,0-23.955,20.175,20.175,0,0,1-6.8-15.379V346.512H434.9v-3.7a5.556,5.556,0,0,1,5.471-5.471,16.472,16.472,0,0,0,16.414-16.414H432.539a20.1,20.1,0,0,0,9.907-14.639l2.07-14.491H399.859l2.514,15.083a20.255,20.255,0,0,0,9.76,14.048H387.438a16.472,16.472,0,0,0,16.414,16.414h0a5.556,5.556,0,0,1,5.471,5.471v3.7h5.767v19.075a20.175,20.175,0,0,1-6.8,15.379,15.322,15.322,0,0,0,0,23.955,20.175,20.175,0,0,1,6.8,15.379v5.028a20.175,20.175,0,0,1-6.8,15.379,15.322,15.322,0,0,0,0,23.955,20.175,20.175,0,0,1,6.8,15.379,19.766,19.766,0,0,1-7.541,15.527,8.452,8.452,0,0,0-1.183,1.035l-5.915,7.246a20.7,20.7,0,0,0-3.253,10.5,15.488,15.488,0,0,0,.739,4.436h-10.5a17.663,17.663,0,0,0,6.8,13.9L393.8,534.9h-.148l-2.07,9.02h.444c-1.035,5.471-2.514,11.978-4.288,18.78-3.549,13.6-8.281,28.243-14.344,38-14.344,23.216-24.99,21.737-24.99,36.081h0c0,16.562,15.231,29.87,31.792,29.87h81.034c16.562,0,34.454-13.456,34.454-29.87h0C495.976,622.588,486.068,620.518,471.872,600.851Z" transform="translate(-348.4 -291.8)" fill="#1ec186"/>
      </g>
      <g id="Group_9" data-name="Group 9" transform="translate(16.072 66.811)">
        <path id="Path_11" data-name="Path 11" d="M353.518,668.24c-19.667-1.035-43.031-17.153-46.579-39.63-2.366-15.083,3.105-44.213,67.134-69.2a159.2,159.2,0,0,1,15.526-5.176c-4.88-5.028-9.316-10.055-13.456-15.231-22.772-28.391-31.5-54.417-24.695-73.492,4.14-11.682,11.682-19.519,22.329-23.512a44.5,44.5,0,0,1,13.456-2.81c-10.795-16.414-18.188-32.68-21-47.319-3.253-16.562-.591-30.166,7.837-40.517,10.351-12.569,26.617-17.005,46.727-12.865,37.411,7.541,78.815,42.439,88.427,74.675,9.464,31.644-23.955,55.008-25.434,55.9l-5.028-7.246c.3-.148,29.574-20.7,21.885-46.136-8.724-28.983-47.615-61.514-81.773-68.464-11.682-2.366-27.8-2.514-38.151,9.907-6.654,8.133-8.724,19.223-6.063,33.123,2.957,14.935,11.238,31.94,23.216,49.093,34.9,2.514,80.442,27.356,112.678,44.8l1.922,1.035c34.75,18.928,57.226,47.467,49.241,62.4-3.993,7.394-17.6,15.822-64.324-9.02-41.108-21.885-79.555-56.191-104.249-90.645a46.968,46.968,0,0,0-16.266,2.514c-8.133,3.105-13.752,9.168-17.153,18.336-5.767,16.118,2.366,39.186,23.216,65.063a207.132,207.132,0,0,0,16.562,18.188c60.775-13.161,114.9,10.647,137.224,31.644,10.5,9.907,14.787,19.667,12.273,27.652-1.627,5.028-6.654,11.386-21.441,13.308-37.264,4.88-92.124-25.878-130.718-62.993a165.576,165.576,0,0,0-19.519,6.211c-43.178,16.857-65.063,38-61.662,59.592,2.81,17.449,22.624,31.349,38.447,32.088Zm53.973-108.833c36.376,33.271,85.913,60.775,118.888,56.339,7.985-1.035,13.16-3.7,14.2-7.246,1.479-4.436-2.218-11.386-9.907-18.632C509.227,569.758,460.133,550.387,407.491,559.407Zm-2.218-110.46c24.1,31.2,59.592,61.958,96.412,81.625,36.376,19.371,50.128,16.709,52.346,12.717,3.549-6.654-9.168-30.609-45.692-50.424l-1.922-1.035C478.913,476.747,437.509,454.271,405.273,448.947Z" transform="translate(-306.51 -336.982)" fill="#9ff7d3"/>
      </g>
      <g id="Group_10" data-name="Group 10" transform="translate(58.792 386.536)">
        <rect id="Rectangle_1" data-name="Rectangle 1" width="26.469" height="13.161" fill="#26d192"/>
      </g>
    </g>
  </g>
</svg>
