<svg id="Efficient" xmlns="http://www.w3.org/2000/svg" width="102" height="102" viewBox="0 0 102 102">
  <g id="Group_294" data-name="Group 294" transform="translate(-5108 -1489)">
    <path id="Path_2620" data-name="Path 2620" d="M5163.535,1533.4s-9.392-4.772-10.777,3.079-4.772,6.62,1.232,9.083,8.621,1.848,9.545,1.386,4.465-6.158,4.157-7.082-.77-2.463-.77-2.463l-1.848-3.233Z" fill="#9ff7d3"/>
    <g id="_45-gauge_-dashboard_-meter_-pressure_-speed_-speedometer_-traffic" data-name="45-gauge,-dashboard,-meter,-pressure,-speed,-speedometer,-traffic" transform="translate(5103 1484)">
      <path id="Shape" d="M56,5A51,51,0,1,1,5,56,51,51,0,0,1,56,5Zm0,5.368A45.632,45.632,0,1,0,101.632,56,45.632,45.632,0,0,0,56,10.368ZM84.74,27.26a2.672,2.672,0,0,1,0,3.8L65.25,50.546a10.732,10.732,0,1,1-3.8-3.8l19.49-19.49a2.684,2.684,0,0,1,3.8,0ZM56,50.632A5.368,5.368,0,1,0,61.368,56,5.368,5.368,0,0,0,56,50.632Zm31.721-9.191A34.773,34.773,0,0,1,90.895,56a2.684,2.684,0,0,1-5.368,0,29.405,29.405,0,0,0-2.683-12.317,2.684,2.684,0,1,1,4.878-2.242ZM56,21.105a34.771,34.771,0,0,1,14.683,3.231,2.684,2.684,0,0,1-2.261,4.869A29.541,29.541,0,0,0,26.474,56a2.684,2.684,0,0,1-5.368,0A34.9,34.9,0,0,1,56,21.105Z"/>
    </g>
  </g>
</svg>
