<svg id="Fast" xmlns="http://www.w3.org/2000/svg" width="106.184" height="101.928" viewBox="0 0 106.184 101.928">
  <path id="Path_2621" data-name="Path 2621" d="M5328.879,1491.526l21.092-.616,1.694,5.234-1.694,2.309-1.385,2.463s-7.391,1.078-8.314,1.078-8.775-1.078-8.775-1.078l-3.695-1.078-1.848-5.542Z" transform="translate(-5275 -1489)" fill="#9ff7d3"/>
  <path id="Path_2622" data-name="Path 2622" d="M5342.391,1545.6s-1.658-2.132-3.671-.829-3.79,1.066-3.553,3.553,1.421,3.553,2.013,3.908,2.369,1.539,3.671.947a6.976,6.976,0,0,0,2.369-2.25Z" transform="translate(-5275 -1489)" fill="#9ff7d3"/>
  <g id="XMLID_386_">
    <path id="XMLID_389_" d="M105.979,66.131a41.859,41.859,0,0,0-32.55-36.705V24.156a7.051,7.051,0,0,0-1.7-13.894H56.795a7.051,7.051,0,0,0-1.7,13.894V29.44A41.643,41.643,0,0,0,34.669,40.674a42.094,42.094,0,0,0-3.521,4c-.052,0-.1-.008-.157-.008H16.211a2.074,2.074,0,0,0,0,4.148H28.326a41.575,41.575,0,0,0-3.68,7.971H2.074a2.074,2.074,0,1,0,0,4.148h21.4A42.168,42.168,0,0,0,22.444,68.9H13.273a2.074,2.074,0,1,0,0,4.148h9.237a42.106,42.106,0,0,0,1.295,7.972H10.37a2.074,2.074,0,1,0,0,4.148H25.129a41.888,41.888,0,0,0,35.022,26.819q2.055.2,4.11.2a41.994,41.994,0,0,0,22.863-6.757,2.074,2.074,0,1,0-2.263-3.476A37.745,37.745,0,1,1,95.978,90.826a2.074,2.074,0,1,0,3.479,2.259A42.027,42.027,0,0,0,105.979,66.131ZM53.891,17.314a2.907,2.907,0,0,1,2.9-2.9H71.727a2.9,2.9,0,0,1,0,5.807H56.795A2.907,2.907,0,0,1,53.891,17.314ZM59.24,28.727V24.365H69.281V28.72A42.257,42.257,0,0,0,59.24,28.727Z" transform="translate(0 -10.262)"/>
    <path id="XMLID_391_" d="M437.844,425.5a2.075,2.075,0,1,0,1.466.608A2.085,2.085,0,0,0,437.844,425.5Z" transform="translate(-345.394 -339.382)"/>
    <path id="XMLID_394_" d="M187.045,144.609a32.173,32.173,0,1,0,32.173,32.173A32.209,32.209,0,0,0,187.045,144.609Zm0,60.2a28.025,28.025,0,1,1,28.025-28.025A28.057,28.057,0,0,1,187.045,204.807Z" transform="translate(-122.753 -116.746)"/>
    <path id="XMLID_397_" d="M281.14,220.019l-10.272,10.272a6.428,6.428,0,0,0-5.693,0l-4.6-4.6a2.074,2.074,0,1,0-2.933,2.933l4.6,4.6a6.445,6.445,0,1,0,11.56,0l9.971-9.971h0l.3-.3a2.074,2.074,0,0,0-2.933-2.933Zm-13.119,18.349a2.3,2.3,0,1,1,2.3-2.3A2.3,2.3,0,0,1,268.021,238.367Z" transform="translate(-203.728 -176.035)"/>
    <path id="XMLID_398_" d="M401.65,289.86h-1.922a2.074,2.074,0,1,0,0,4.148h1.922a2.074,2.074,0,0,0,0-4.148Z" transform="translate(-315.184 -231.873)"/>
    <path id="XMLID_399_" d="M197.077,289.616h-1.921a2.074,2.074,0,0,0,0,4.148h1.921a2.074,2.074,0,1,0,0-4.148Z" transform="translate(-153.038 -231.68)"/>
    <path id="XMLID_400_" d="M302.2,188.888a2.074,2.074,0,0,0,2.074-2.074v-1.921a2.074,2.074,0,1,0-4.148,0v1.921A2.074,2.074,0,0,0,302.2,188.888Z" transform="translate(-237.879 -147.032)"/>
    <path id="XMLID_424_" d="M301.953,387.393a2.074,2.074,0,0,0-2.074,2.074v1.921a2.074,2.074,0,1,0,4.148,0v-1.921A2.074,2.074,0,0,0,301.953,387.393Z" transform="translate(-237.686 -309.178)"/>
    <path id="XMLID_425_" d="M2.074,351.44a2.074,2.074,0,1,0,1.466,3.54,2.074,2.074,0,0,0-1.466-3.54Z" transform="translate(0 -280.682)"/>
  </g>
</svg>
