<svg xmlns="http://www.w3.org/2000/svg" viewBox="0 0 908.63 332.42"><defs><style>.cls-1{fill:#213993;}.cls-2{fill:#1ec186;}.cls-3{fill:#6d81d5;}.cls-4{fill:#2944ae;}.cls-5{fill:#5169cd;}.cls-6{fill:#3351c5;}.cls-7{fill:#26d192;}.cls-8{fill:#9ff7d3;}</style></defs><g id="Layer_2" data-name="Layer 2"><g id="Layer_1-2" data-name="Layer 1"><path class="cls-1" d="M352.61,138.26A31.9,31.9,0,0,1,338.3,127a29.56,29.56,0,0,1-5-17.1v-3.41a1.84,1.84,0,0,1,1.86-1.85h17.64a1.86,1.86,0,0,1,1.86,1.85v2.32q0,6.19,5.72,10.45t15.48,4.26q8.19,0,12.22-3.49a10.91,10.91,0,0,0,4-8.58,8.65,8.65,0,0,0-2.47-6.27,22,22,0,0,0-6.73-4.49q-4.26-1.93-13.54-5.34a132.88,132.88,0,0,1-17.57-7.27,35.41,35.41,0,0,1-12.07-10.14q-4.87-6.42-4.87-15.86a27.92,27.92,0,0,1,4.8-16.25,30.55,30.55,0,0,1,13.3-10.68,48.9,48.9,0,0,1,19.66-3.71,50.09,50.09,0,0,1,21,4.18,34.2,34.2,0,0,1,14.4,11.68,29.94,29.94,0,0,1,5.18,17.41V67a1.84,1.84,0,0,1-1.86,1.86H393.47A1.84,1.84,0,0,1,391.61,67V65.76a14,14,0,0,0-5.34-11.06q-5.34-4.56-14.62-4.57-7.27,0-11.38,3.1a10.08,10.08,0,0,0-4.1,8.51,9.28,9.28,0,0,0,2.4,6.5A20.91,20.91,0,0,0,365.69,73q4.72,2.08,14.62,5.65a179.54,179.54,0,0,1,17.26,7.12,34.44,34.44,0,0,1,11.3,9.2q5,6.12,5,15.87,0,14.53-10.67,23t-28.94,8.43A55.07,55.07,0,0,1,352.61,138.26Z"/><path class="cls-1" d="M489.26,67.78q7.58,7.57,7.58,20.58v50.76a1.79,1.79,0,0,1-.54,1.31A1.81,1.81,0,0,1,495,141h-18.1a1.84,1.84,0,0,1-1.86-1.85V92.84a14.46,14.46,0,0,0-3.48-10,12.89,12.89,0,0,0-18.42,0,14.46,14.46,0,0,0-3.48,10v46.28a1.84,1.84,0,0,1-1.86,1.85h-18.1a1.84,1.84,0,0,1-1.86-1.85V34.5a1.84,1.84,0,0,1,1.86-1.85h18.1a1.84,1.84,0,0,1,1.86,1.85V68.7a.62.62,0,0,0,.31.62.29.29,0,0,0,.46-.15q6.34-9,18.88-9T489.26,67.78Z"/><path class="cls-1" d="M583,106.15a1.8,1.8,0,0,1-2,1.86H533.21c-.62,0-.83.26-.62.77a27.34,27.34,0,0,0,1.7,6.19q4,8.67,16.4,8.67a18.68,18.68,0,0,0,15.63-8,1.72,1.72,0,0,1,1.39-.93,1.74,1.74,0,0,1,1.09.62l11.14,11a2.16,2.16,0,0,1,.77,1.39,3.07,3.07,0,0,1-.62,1.24,33.73,33.73,0,0,1-13.15,9.83,43.94,43.94,0,0,1-17.64,3.48q-13.31,0-22.52-6a33.53,33.53,0,0,1-13.23-16.87q-3.24-7.74-3.25-20.27a44.79,44.79,0,0,1,2.32-15,34.06,34.06,0,0,1,12.46-17.48Q534,60,546.2,60q15.48,0,24.84,9t11.38,24A67,67,0,0,1,583,106.15Zm-49.51-18.1a35.35,35.35,0,0,0-1.09,5,.68.68,0,0,0,.78.77H560c.62,0,.82-.25.62-.77-.52-3-.78-4.44-.78-4.33a13.36,13.36,0,0,0-4.87-7.2,14.15,14.15,0,0,0-8.59-2.55Q536.61,78.92,533.52,88.05Z"/><path class="cls-1" d="M667.53,106.15a1.81,1.81,0,0,1-2,1.86H617.7c-.62,0-.83.26-.62.77a27.34,27.34,0,0,0,1.7,6.19q4,8.67,16.4,8.67a18.65,18.65,0,0,0,15.63-8,1.73,1.73,0,0,1,1.4-.93,1.7,1.7,0,0,1,1.08.62l11.14,11a2.14,2.14,0,0,1,.78,1.39,3.23,3.23,0,0,1-.62,1.24,33.77,33.77,0,0,1-13.16,9.83,43.94,43.94,0,0,1-17.64,3.48q-13.31,0-22.51-6A33.6,33.6,0,0,1,598,119.31q-3.24-7.74-3.25-20.27a44.53,44.53,0,0,1,2.33-15,34,34,0,0,1,12.45-17.48Q618.46,60,630.7,60q15.46,0,24.83,9t11.38,24A67,67,0,0,1,667.53,106.15ZM618,88.05a35.35,35.35,0,0,0-1.09,5,.68.68,0,0,0,.78.77h26.77c.62,0,.82-.25.62-.77-.52-3-.78-4.44-.78-4.33a13.31,13.31,0,0,0-4.87-7.2,14.13,14.13,0,0,0-8.59-2.55Q621.1,78.92,618,88.05Z"/><path class="cls-1" d="M693.53,139.12a27.63,27.63,0,0,1-12-8.21A18.4,18.4,0,0,1,677.28,119v-1.55a1.74,1.74,0,0,1,.54-1.31,1.76,1.76,0,0,1,1.31-.55h17.18a1.86,1.86,0,0,1,1.86,1.86v.15c0,2.28,1.26,4.21,3.79,5.81a17.49,17.49,0,0,0,9.52,2.4,15.57,15.57,0,0,0,8.51-2.09c2.16-1.4,3.25-3.12,3.25-5.19a4.47,4.47,0,0,0-2.79-4.18,48,48,0,0,0-9.13-2.93,93.23,93.23,0,0,1-11.45-3.56q-9.9-3.4-15.78-8.36T678.2,85.26a21.62,21.62,0,0,1,8.9-18.18q8.89-6.73,23.6-6.73A43.93,43.93,0,0,1,728,63.52a26.58,26.58,0,0,1,11.53,8.9,21.74,21.74,0,0,1,4.1,13,1.84,1.84,0,0,1-1.85,1.85H725.25a1.84,1.84,0,0,1-1.86-1.85q0-3.4-3.48-5.73t-9.21-2.32a16.65,16.65,0,0,0-8.35,1.86,5.67,5.67,0,0,0-3.25,5.1A5,5,0,0,0,702.27,89a54.53,54.53,0,0,0,10.6,3.25c1.13.31,2.42.64,3.87,1s3,.8,4.64,1.32q11,3.24,17.33,8.35t6.35,14.86q0,11.46-9.06,17.87t-24.37,6.42A51,51,0,0,1,693.53,139.12Z"/><path class="cls-1" d="M819,67.78q7.58,7.57,7.58,20.58v50.76a1.84,1.84,0,0,1-1.86,1.85h-18.1a1.84,1.84,0,0,1-1.86-1.85V92.84a14.46,14.46,0,0,0-3.48-10,12.89,12.89,0,0,0-18.42,0,14.46,14.46,0,0,0-3.48,10v46.28a1.84,1.84,0,0,1-1.86,1.85h-18.1a1.84,1.84,0,0,1-1.86-1.85V34.5a1.84,1.84,0,0,1,1.86-1.85h18.1a1.84,1.84,0,0,1,1.86,1.85V68.7a.62.62,0,0,0,.31.62.3.3,0,0,0,.47-.15q6.33-9,18.87-9T819,67.78Z"/><path class="cls-1" d="M891.91,63.68a29.6,29.6,0,0,1,12.31,9.51,22.29,22.29,0,0,1,4.41,13.46v52.47a1.76,1.76,0,0,1-.55,1.31,1.79,1.79,0,0,1-1.31.54H888.66a1.84,1.84,0,0,1-1.85-1.85V134a.63.63,0,0,0-.31-.62c-.21-.1-.42,0-.62.31q-6.5,8.51-20.89,8.51-12.07,0-19.5-5.88T838.06,119q0-11.93,8.36-18.49t23.83-6.58H886a.69.69,0,0,0,.78-.78v-3.4a10.34,10.34,0,0,0-3.1-8q-3.09-2.86-9.28-2.86a16.77,16.77,0,0,0-8,1.7,7.93,7.93,0,0,0-4.1,4.8,1.78,1.78,0,0,1-2,1.54l-18.72-2.47c-1.24-.21-1.81-.67-1.7-1.39a20.56,20.56,0,0,1,5.18-11.76,30.2,30.2,0,0,1,12.07-8.21A45.72,45.72,0,0,1,874,60.19,43.89,43.89,0,0,1,891.91,63.68Zm-9.75,58.72a11,11,0,0,0,4.65-9.13V107.7a.69.69,0,0,0-.78-.77H874.89q-7,0-10.91,2.63a8.42,8.42,0,0,0-4,7.43,8,8,0,0,0,3,6.57,12.08,12.08,0,0,0,7.89,2.4A18,18,0,0,0,882.16,122.4Z"/><path class="cls-2" d="M432.18,189.64H382.91a.47.47,0,0,0-.53.54v33.16a.47.47,0,0,0,.53.53h34.5a1.18,1.18,0,0,1,1.34,1.34v5.64a1.18,1.18,0,0,1-1.34,1.34h-34.5a.48.48,0,0,0-.53.54v41.21a1.18,1.18,0,0,1-1.34,1.34h-6.85a1.18,1.18,0,0,1-1.34-1.34V182.66a1.18,1.18,0,0,1,1.34-1.34h58a1.19,1.19,0,0,1,1.34,1.34v5.64A1.18,1.18,0,0,1,432.18,189.64Z"/><path class="cls-2" d="M449.09,273.94V182.66a1.19,1.19,0,0,1,1.34-1.34h6.85a1.19,1.19,0,0,1,1.34,1.34v91.28a1.18,1.18,0,0,1-1.34,1.34h-6.85A1.18,1.18,0,0,1,449.09,273.94Z"/><path class="cls-2" d="M541.17,181.32H548a1.19,1.19,0,0,1,1.34,1.34v91.28a1.18,1.18,0,0,1-1.34,1.34h-6.71a1.92,1.92,0,0,1-1.61-.94l-45.78-74.5c-.09-.26-.22-.37-.4-.33s-.27.2-.27.47l.14,74a1.19,1.19,0,0,1-1.35,1.34H485.2a1.18,1.18,0,0,1-1.34-1.34V182.66a1.18,1.18,0,0,1,1.34-1.34h6.71a2,2,0,0,1,1.61.94l45.77,74.5c.09.27.22.38.41.33s.26-.2.26-.47l-.13-74A1.19,1.19,0,0,1,541.17,181.32Z"/><path class="cls-2" d="M628.69,274.21l-5.37-16.91a.53.53,0,0,0-.54-.41H582.65a.53.53,0,0,0-.54.41l-5.37,16.91a1.55,1.55,0,0,1-1.61,1.07h-7.25c-1,0-1.34-.49-1.07-1.47l29.66-91.42a1.57,1.57,0,0,1,1.61-1.07h9.13a1.57,1.57,0,0,1,1.61,1.07l29.8,91.42.14.53c0,.63-.41.94-1.21.94H630.3A1.55,1.55,0,0,1,628.69,274.21Zm-43.83-25.3a.67.67,0,0,0,.47.2H620a.65.65,0,0,0,.47-.2.37.37,0,0,0,.07-.47l-17.45-54.77a.43.43,0,0,0-.4-.27.42.42,0,0,0-.4.27L584.8,248.44A.38.38,0,0,0,584.86,248.91Z"/><path class="cls-2" d="M713.39,181.32h6.84a1.19,1.19,0,0,1,1.35,1.34v91.28a1.19,1.19,0,0,1-1.35,1.34h-6.71a2,2,0,0,1-1.61-.94l-45.77-74.5c-.09-.26-.23-.37-.4-.33s-.27.2-.27.47l.13,74a1.18,1.18,0,0,1-1.34,1.34h-6.85a1.18,1.18,0,0,1-1.34-1.34V182.66a1.19,1.19,0,0,1,1.34-1.34h6.72a2,2,0,0,1,1.61.94l45.77,74.5c.09.27.22.38.4.33s.27-.2.27-.47l-.13-74A1.18,1.18,0,0,1,713.39,181.32Z"/><path class="cls-2" d="M758.89,272.8a26.88,26.88,0,0,1-11.07-10.47,30.43,30.43,0,0,1-4-15.64V209.78a29.82,29.82,0,0,1,4-15.44,27,27,0,0,1,11.07-10.4,35.37,35.37,0,0,1,16.51-3.69,36,36,0,0,1,16.51,3.62A26.87,26.87,0,0,1,803,194.07a28.93,28.93,0,0,1,4,15.17,1.42,1.42,0,0,1-.41,1.07,1.27,1.27,0,0,1-.94.41l-6.84.4c-.9,0-1.34-.4-1.34-1.21v-.4q0-9.52-6-15.24t-16-5.7q-9.93,0-16,5.77t-6,15.17v37.58q0,9.41,6,15.17t16,5.77q9.93,0,16-5.7t6-15.24v-.26c0-.81.44-1.21,1.34-1.21l6.84.4c.9,0,1.35.4,1.35,1.21a29.53,29.53,0,0,1-4,15.37,26.7,26.7,0,0,1-11.08,10.27,36,36,0,0,1-16.51,3.62A35.37,35.37,0,0,1,758.89,272.8Z"/><path class="cls-2" d="M887.75,189.64H838.36a.48.48,0,0,0-.54.54v33.16a.47.47,0,0,0,.54.53H873a1.19,1.19,0,0,1,1.34,1.34v5.64a1.18,1.18,0,0,1-1.34,1.34H838.36a.48.48,0,0,0-.54.54v33.69a.48.48,0,0,0,.54.54h49.39a1.19,1.19,0,0,1,1.35,1.34v5.64a1.19,1.19,0,0,1-1.35,1.34H829.63a1.18,1.18,0,0,1-1.34-1.34V182.66a1.19,1.19,0,0,1,1.34-1.34h58.12a1.19,1.19,0,0,1,1.35,1.34v5.64A1.19,1.19,0,0,1,887.75,189.64Z"/><path class="cls-3" d="M289.13,247.73a3.35,3.35,0,0,1-1.68,2.91l-7.05,4.06L144.57,176.28,9,254.71l-7-4.07a3.33,3.33,0,0,1-1.67-2.9L0,84.69a3.35,3.35,0,0,1,1.68-2.91L143,.45a3.34,3.34,0,0,1,3.35,0l5,2.9-.1,158.16L289.13,241.1Z"/><path class="cls-4" d="M288.68,249.42a3.35,3.35,0,0,1-1.23,1.22L146.12,332a3.34,3.34,0,0,1-3.35,0L1.91,250.64a3.27,3.27,0,0,1-1.23-1.22l143.89-83.21Z"/><path class="cls-4" d="M288.68,249.42a3.35,3.35,0,0,1-1.23,1.22L146.12,332a3.34,3.34,0,0,1-3.35,0L1.91,250.64a3.27,3.27,0,0,1-1.23-1.22l143.89-83.21Z"/><path class="cls-1" d="M223.74,211.92v.16L149.61,255a10.05,10.05,0,0,1-10.09,0L65.38,212.08V212l79.19-45.79Z"/><path class="cls-1" d="M288.68,249.42a3.35,3.35,0,0,1-1.23,1.22L146.12,332a3.34,3.34,0,0,1-3.35,0L128,323.44l123.13-70.86a3.36,3.36,0,0,0,0-5.82l-123-71h0l16.47-9.52Z"/><path class="cls-5" d="M289.13,247.73a3.35,3.35,0,0,1-.45,1.68l-144.11-83.2L144.68,0a3.36,3.36,0,0,1,1.68.45L287.22,81.78a3.34,3.34,0,0,1,1.68,2.9Z"/><path class="cls-6" d="M289.13,247.73a3.35,3.35,0,0,1-.45,1.68l-20.2-11.66V94.84L144.67,23.13l0-23.13a3.35,3.35,0,0,1,1.67.45L287.22,81.78a3.34,3.34,0,0,1,1.68,2.9Z"/><path class="cls-7" d="M120.65,258.87a7.58,7.58,0,0,0,2.45-.4,8.52,8.52,0,0,1,5.55.1,7.34,7.34,0,0,0,6.49-.88,8.69,8.69,0,0,1,5.07-1.56H142l0-1.21,4.45,0a1.38,1.38,0,0,0,1.41,1.3h1l.06-6.49h-1a1.37,1.37,0,0,0-1.44,1.29l-4.46,0,0-1.38-1.81,0a8.74,8.74,0,0,1-5.05-1.66,7.09,7.09,0,0,0-4.14-1.35,7.28,7.28,0,0,0-2.45.39,8.61,8.61,0,0,1-5.56-.09,7.32,7.32,0,0,0-2.31-.4,7.19,7.19,0,0,0-2.47.4,8.54,8.54,0,0,1-5.75,0,7.36,7.36,0,0,0-2.46-.45,7.1,7.1,0,0,0-4.17,1.27h0a3.77,3.77,0,0,0-1.66,3l0,3.62a3.75,3.75,0,0,0,1.6,3h0a7.29,7.29,0,0,0,6.61.95,8.54,8.54,0,0,1,5.75.06A7.36,7.36,0,0,0,120.65,258.87Z"/><path class="cls-1" d="M181.91,140.11C148.79,118.58,143.7,95,143.7,95s-3.06,23.62-36.17,45.15-48,36.42-46.37,64.57,28.15,36.43,28.15,36.43H200.12s26.5-8.28,28.15-36.43S215,161.63,181.91,140.11Z"/><path class="cls-2" d="M169.87,207.32c-3.23-4.43-8.16-20.27-10.4-27.83-.73-2.48-1.18-4.06-1.18-4.06l-.22-.07c-.37-1.54-.69-2.92-.95-4.06a9.63,9.63,0,0,0,4.81-8.34h-5.69a7.8,7.8,0,0,0,.39-2.41,10.49,10.49,0,0,0-.92-4.07l14.35-10.6-5.1-6.24L153.2,152.52a15.76,15.76,0,0,0-2.17-2.07,10.69,10.69,0,0,1-4.05-8.39,11,11,0,0,1,3.66-8.32,8.29,8.29,0,0,0,0-12.93,11,11,0,0,1-3.66-8.32v-2.74a11,11,0,0,1,3.66-8.32,8.29,8.29,0,0,0,0-12.93A11,11,0,0,1,147,80.18V69.88h3v-2a3,3,0,0,1,3-3,8.87,8.87,0,0,0,8.87-8.87H148.68A10.91,10.91,0,0,0,154,48.17l1.12-7.84H131l1.4,8.15a10.94,10.94,0,0,0,5.3,7.61H124.37A8.86,8.86,0,0,0,133.23,65h0a3,3,0,0,1,3,3v2h3.08v10.3a11,11,0,0,1-3.66,8.32,8.31,8.31,0,0,0,0,12.93,11,11,0,0,1,3.66,8.32v2.74a11,11,0,0,1-3.66,8.32,8.31,8.31,0,0,0,0,12.93,11,11,0,0,1,3.66,8.32,10.69,10.69,0,0,1-4.05,8.39c-.23.18-.45.37-.67.56l-3.2,3.88a11.49,11.49,0,0,0-1.73,5.66A7.8,7.8,0,0,0,130,163h-5.69A9.62,9.62,0,0,0,128,170.5q-.09.57-.21,1.23h-.06l-1.1,4.89.25,0c-.59,3-1.36,6.52-2.3,10.17-1.88,7.35-4.45,15.24-7.72,20.54-7.72,12.54-13.5,11.76-13.5,19.5h0c0,8.94,8.21,16.19,17.15,16.19h43.82c8.94,0,18.6-7.25,18.6-16.19h0C182.89,219.08,177.58,217.93,169.87,207.32Z"/><path class="cls-8" d="M95.1,255.49c-10.6-.56-23.26-9.29-25.21-21.39-1.31-8.17,1.65-23.89,36.29-37.4,2.81-1.09,5.6-2,8.38-2.81-2.61-2.71-5-5.46-7.27-8.22C95,170.34,90.23,156.22,94,145.91c2.28-6.29,6.34-10.57,12.07-12.75a26.18,26.18,0,0,1,7.28-1.55c-5.81-8.89-9.82-17.67-11.38-25.62-1.76-9-.33-16.33,4.26-21.87,5.63-6.79,14.37-9.2,25.27-7,20.26,4.12,42.6,23,47.81,40.33,5.13,17.11-13,29.72-13.74,30.24l-2.7-3.94c.16-.11,16-11.17,11.87-24.92C170,103.2,149,85.55,130.51,81.81c-6.32-1.29-15-1.4-20.64,5.36-3.64,4.38-4.73,10.4-3.26,17.9,1.6,8.09,6.07,17.27,12.54,26.56,18.89,1.38,43.45,14.75,60.9,24.25l1,.56c18.76,10.21,30.94,25.66,26.59,33.73-2.13,4-9.48,8.58-34.76-4.9-22.22-11.84-43-30.38-56.39-49a23.86,23.86,0,0,0-8.8,1.35c-4.43,1.68-7.46,4.92-9.27,9.9-3.14,8.69,1.32,21.17,12.56,35.14a120.1,120.1,0,0,0,8.94,9.87c32.84-7.14,62.11,5.76,74.16,17.12,5.67,5.34,8,10.66,6.64,15-.87,2.7-3.59,6.13-11.63,7.19-20.16,2.68-49.77-14-70.63-34a83.26,83.26,0,0,0-10.58,3.33c-23.35,9.11-35.18,20.54-33.31,32.19,1.52,9.41,12.2,16.93,20.75,17.38Zm29.13-58.87c19.67,18,46.47,32.83,64.26,30.48,4.35-.58,7.08-2,7.71-3.92.78-2.4-1.23-6.15-5.36-10.05C179.22,202.19,152.74,191.74,124.23,196.62ZM123,136.9c13.06,16.87,32.18,33.52,52.12,44.16,19.67,10.49,27.12,9.06,28.31,6.85,2-3.64-5-16.56-24.66-27.27l-1-.56C162.88,152,140.47,139.77,123,136.9Z"/><rect class="cls-7" x="92.76" y="249.2" width="14.28" height="7.13"/></g></g></svg>