<svg xmlns="http://www.w3.org/2000/svg" xmlns:xlink="http://www.w3.org/1999/xlink" width="1920" height="550" viewBox="0 0 1920 550">
  <defs>
    <clipPath id="clip-path">
      <rect id="Mask" width="1920" height="550" transform="translate(0 2097)" fill="#2944ae"/>
    </clipPath>
  </defs>
  <g id="Mask_Group_11" data-name="Mask Group 11" transform="translate(0 -2097)" clip-path="url(#clip-path)">
    <g id="aboutUs-bg" transform="translate(2585.314 1396.724)" opacity="0.54">
      <rect id="Rectangle_46" data-name="Rectangle 46" width="0.433" height="301.118" transform="translate(-550.367 1038.335) rotate(-60)" fill="#fff"/>
      <rect id="Rectangle_47" data-name="Rectangle 47" width="301.118" height="0.433" transform="translate(-680.407 1063.019) rotate(-30.003)" fill="#fff"/>
      <rect id="Rectangle_48" data-name="Rectangle 48" width="236.809" height="0.384" transform="translate(-1069.219 1162.224) rotate(-29.986)" fill="#fff"/>
      <rect id="Rectangle_49" data-name="Rectangle 49" width="301.118" height="0.433" transform="translate(-1243.879 1562.392) rotate(-30.003)" fill="#fff"/>
      <rect id="Rectangle_50" data-name="Rectangle 50" width="0.371" height="220.962" transform="translate(-1412.809 1164.463) rotate(-60)" fill="#fff"/>
      <rect id="Rectangle_51" data-name="Rectangle 51" width="0.371" height="220.962" transform="matrix(0.5, -0.866, 0.866, 0.5, -1495.182, 1166.892)" fill="#fff"/>
      <rect id="Rectangle_52" data-name="Rectangle 52" width="0.371" height="220.962" transform="matrix(0.5, -0.866, 0.866, 0.5, -851.322, 1014.469)" fill="#fff"/>
      <rect id="Rectangle_53" data-name="Rectangle 53" width="0.331" height="175.814" transform="translate(-1026.53 1287.286) rotate(-60)" fill="#fff"/>
      <path id="Path_2506" data-name="Path 2506" d="M-1259.66,1093.54l-.108-.062-43.386-25.049v-50.223l.108-.062,43.386-25.049,43.495,25.111v50.223l-.108.062Zm-43.061-25.361,43.061,24.862,43.063-24.862v-49.723l-43.063-24.862-43.061,24.862Z" transform="translate(60.158 19.737)" fill="#fff"/>
      <path id="Path_2507" data-name="Path 2507" d="M-1120.583,1133.688l-.108-.062-43.386-25.049v-50.224l.108-.062,43.386-25.049.108.062,43.386,25.049v50.224l-.108.062Zm-43.061-25.361,43.061,24.862,43.063-24.862V1058.6l-43.063-24.862-43.061,24.862Z" transform="translate(94.194 29.562)" fill="#fff"/>
      <path id="Path_2508" data-name="Path 2508" d="M-1155.28,1133.974l-.289-.167-43.567-25.152v-50.641l.289-.167,43.567-25.152,43.855,25.319v50.641l-.289.166Zm-42.7-25.986,42.7,24.654,42.7-24.654v-49.306l-42.7-24.654-42.7,24.654Z" transform="translate(85.614 29.428)" fill="#fff"/>
      <path id="Path_2509" data-name="Path 2509" d="M-1051.043,1073.247l-.108-.062-43.386-25.05V997.912l.108-.063,43.386-25.049,43.495,25.112v50.222l-.108.063Zm-43.063-25.361,43.063,24.861,43.061-24.861V998.161l-43.061-24.861-43.063,24.861Z" transform="translate(111.213 14.77)" fill="#fff"/>
      <path id="Path_2510" data-name="Path 2510" d="M-1085.812,1093.328l-.108-.063-43.388-25.049v-50.224l.108-.062,43.387-25.049,43.495,25.111v50.224l-.108.062Zm-43.062-25.363,43.063,24.862,43.062-24.862v-49.723l-43.062-24.862-43.062,24.862Z" transform="translate(102.703 19.684)" fill="#fff"/>
      <path id="Path_2511" data-name="Path 2511" d="M-1259.589,1113.893l-.287-.166-43.567-25.153v-50.641l43.854-25.319,43.856,25.319v50.641l-.289.167Zm-42.7-25.985,42.7,24.653,42.7-24.653V1038.6l-42.7-24.654-42.7,24.654Z" transform="translate(60.087 24.514)" fill="#fff"/>
      <path id="Path_2512" data-name="Path 2512" d="M-1294.428,1133.476l-.108-.062-43.386-25.05V1058.14l.108-.062,43.386-25.049,43.495,25.111v50.224l-.108.063Zm-43.061-25.361,43.061,24.861,43.063-24.861V1058.39l-43.063-24.861-43.061,24.861Z" transform="translate(51.649 29.51)" fill="#fff"/>
      <path id="Path_2513" data-name="Path 2513" d="M-1190.12,1113.4l-.108-.062-43.386-25.049v-50.224l.108-.062,43.386-25.05,43.495,25.112v50.224l-.108.062Zm-43.063-25.361,43.063,24.861,43.061-24.861v-49.725l-43.061-24.861-43.063,24.861Z" transform="translate(77.176 24.595)" fill="#fff"/>
      <path id="Path_2514" data-name="Path 2514" d="M-1190.12,1073.247l-.108-.062-43.386-25.05V997.912l.108-.063,43.386-25.049,43.495,25.112v50.222l-.108.063Zm-43.063-25.361,43.063,24.861,43.061-24.861V998.161L-1190.12,973.3l-43.063,24.861Z" transform="translate(77.176 14.77)" fill="#fff"/>
      <path id="Path_2515" data-name="Path 2515" d="M-1016.2,1435.307l-.289-.167-43.567-25.154v-50.639l.289-.167,43.567-25.154.289.167,43.567,25.154v50.639l-.289.167Zm-42.7-25.986,42.7,24.653,42.7-24.653v-49.307l-42.7-24.653-42.7,24.653Z" transform="translate(119.651 103.173)" fill="#fff"/>
      <path id="Path_2516" data-name="Path 2516" d="M-1051.043,1454.889l-.108-.062-43.386-25.049v-50.224l.108-.062,43.386-25.049.108.062,43.387,25.049v50.224l-.108.062Zm-43.063-25.361,43.063,24.862,43.061-24.862V1379.8l-43.061-24.862-43.063,24.862Z" transform="translate(111.213 108.17)" fill="#fff"/>
      <path id="Path_2517" data-name="Path 2517" d="M-1085.812,1434.808l-.108-.062-43.386-25.049v-50.224l.108-.062,43.386-25.049.108.062,43.386,25.049V1409.7l-.108.062Zm-43.062-25.361,43.063,24.862,43.062-24.862v-49.723l-43.062-24.862-43.062,24.862Z" transform="translate(102.704 103.255)" fill="#fff"/>
      <path id="Path_2518" data-name="Path 2518" d="M-1085.741,1395.159l-.289-.167-43.567-25.154V1319.2l.289-.167,43.567-25.153.287.167,43.567,25.154v50.639l-.288.167Zm-42.7-25.986,42.7,24.653,42.7-24.653v-49.308l-42.7-24.653-42.7,24.653Z" transform="translate(102.633 93.348)" fill="#fff"/>
      <path id="Path_2519" data-name="Path 2519" d="M-1294.428,1454.46l-.108-.062-43.386-25.05v-50.224l.108-.062,43.386-25.049.108.062,43.386,25.049v50.224l-.108.062Zm-43.061-25.361,43.061,24.861,43.061-24.861v-49.725l-43.061-24.861-43.061,24.861Z" transform="translate(51.649 108.064)" fill="#fff"/>
      <path id="Path_2520" data-name="Path 2520" d="M-1329.2,1474.541l-.108-.064-43.386-25.049v-50.224l.108-.062,43.386-25.049.108.062,43.386,25.049v50.224l-.108.062Zm-43.063-25.363,43.063,24.862,43.061-24.862v-49.723l-43.061-24.862-43.063,24.862Z" transform="translate(43.14 112.979)" fill="#fff"/>
      <path id="Path_2521" data-name="Path 2521" d="M-1363.966,1454.46l-.108-.062-43.386-25.05v-50.224l.108-.062,43.386-25.049.108.062,43.386,25.049v50.224l-.108.062Zm-43.063-25.361,43.063,24.861,43.061-24.861v-49.725l-43.061-24.861-43.063,24.861Z" transform="translate(34.631 108.064)" fill="#fff"/>
      <path id="Path_2522" data-name="Path 2522" d="M-1363.966,1414.312l-.108-.063-43.386-25.049v-50.224l.108-.062,43.386-25.049.108.062,43.386,25.049V1389.2l-.108.062Zm-43.063-25.363,43.063,24.862,43.061-24.862v-49.723l-43.061-24.861-43.063,24.861Z" transform="translate(34.631 98.239)" fill="#fff"/>
      <path id="Path_2523" data-name="Path 2523" d="M-946.735,1374.794l-.108-.062-43.386-25.049v-50.224l.107-.062,43.388-25.049.107.062,43.388,25.049v50.224l-.108.062Zm-43.063-25.361,43.063,24.862,43.061-24.862v-49.723l-43.061-24.862-43.063,24.862Z" transform="translate(136.74 88.568)" fill="#fff"/>
      <path id="Path_2524" data-name="Path 2524" d="M-981.505,1374.582l-.108-.063L-1025,1349.47v-50.224l.108-.062,43.386-25.049.108.062,43.386,25.049v50.224l-.108.062Zm-43.061-25.361,43.061,24.861,43.063-24.861V1299.5l-43.063-24.861-43.061,24.861Z" transform="translate(128.231 88.516)" fill="#fff"/>
      <path id="Path_2525" data-name="Path 2525" d="M-877.2,1314.353l-.108-.062-43.386-25.05v-50.224l.108-.062,43.386-25.049.108.062,43.386,25.049v50.224l-.108.062Zm-43.061-25.361,43.061,24.861,43.061-24.861v-49.724l-43.061-24.861-43.061,24.861Z" transform="translate(153.758 73.776)" fill="#fff"/>
      <path id="Path_2526" data-name="Path 2526" d="M-1016.274,1354.5l-.108-.062-43.386-25.05v-50.222l.108-.064,43.386-25.049.108.062,43.386,25.05v50.222l-.108.062Zm-43.061-25.361,43.061,24.861,43.063-24.861v-49.724l-43.063-24.861-43.061,24.861Z" transform="translate(119.722 83.601)" fill="#fff"/>
      <path id="Path_2527" data-name="Path 2527" d="M-738.049,1435.307l-.289-.167-43.567-25.154v-50.639l.289-.167,43.567-25.154.289.167,43.567,25.154v50.639l-.289.167Zm-42.7-25.986,42.7,24.653,42.7-24.653v-49.307l-42.7-24.653-42.7,24.653Z" transform="translate(187.723 103.173)" fill="#fff"/>
      <path id="Path_2528" data-name="Path 2528" d="M-772.889,1454.889l-.108-.062-43.386-25.049v-50.224l.107-.062,43.388-25.049.108.062,43.386,25.049v50.224l-.108.062Zm-43.063-25.361,43.063,24.862,43.061-24.862V1379.8l-43.061-24.862-43.063,24.862Z" transform="translate(179.285 108.17)" fill="#fff"/>
      <path id="Path_2529" data-name="Path 2529" d="M-668.582,1374.794l-.108-.062-43.386-25.049v-50.224l.108-.062,43.386-25.049.108.062,43.386,25.049v50.224l-.108.062Zm-43.061-25.361,43.061,24.862,43.063-24.862v-49.723l-43.063-24.862-43.061,24.862Z" transform="translate(204.812 88.568)" fill="#fff"/>
      <path id="Path_2530" data-name="Path 2530" d="M-703.351,1374.582l-.108-.063-43.386-25.049v-50.224l.108-.062,43.386-25.049.108.062,43.386,25.049v50.224l-.108.062Zm-43.061-25.361,43.061,24.861,43.062-24.861V1299.5l-43.062-24.861-43.061,24.861Z" transform="translate(196.303 88.516)" fill="#fff"/>
      <path id="Path_2531" data-name="Path 2531" d="M-738.12,1354.5l-.108-.062-43.386-25.05v-50.222l.108-.064,43.386-25.049.108.062,43.386,25.05v50.222l-.108.062Zm-43.063-25.361L-738.12,1354l43.061-24.861v-49.724l-43.061-24.861-43.063,24.861Z" transform="translate(187.794 83.601)" fill="#fff"/>
      <path id="Path_2532" data-name="Path 2532" d="M-1016.274,1314.353l-.108-.062-43.386-25.05v-50.224l.108-.062,43.386-25.049.108.062,43.386,25.049v50.224l-.108.062Zm-43.061-25.361,43.061,24.861,43.063-24.861v-49.724l-43.063-24.861-43.061,24.861Z" transform="translate(119.722 73.776)" fill="#fff"/>
      <path id="Path_2533" data-name="Path 2533" d="M-946.735,1314.353l-.108-.063-43.386-25.049v-50.224l.107-.062,43.388-25.049.107.062,43.388,25.049v50.224l-.108.062Zm-43.063-25.361,43.063,24.861,43.061-24.861v-49.724l-43.061-24.861-43.063,24.861Z" transform="translate(136.74 73.776)" fill="#fff"/>
      <path id="Path_2534" data-name="Path 2534" d="M-946.664,1274.7l-.289-.167-43.567-25.152v-50.64l.289-.167,43.567-25.152.287.166,43.567,25.154v50.64l-.288.166Zm-42.7-25.986,42.7,24.654,42.7-24.654v-49.307l-42.7-24.653-42.7,24.653Z" transform="translate(136.669 63.869)" fill="#fff"/>
      <path id="Path_2535" data-name="Path 2535" d="M-1224.891,1173.617l-.107-.062-43.388-25.049v-50.224l.108-.062,43.386-25.05.108.063,43.386,25.049v50.224l-.107.062Zm-43.061-25.361,43.061,24.862,43.063-24.862v-49.723l-43.063-24.862-43.061,24.862Z" transform="translate(68.667 39.334)" fill="#fff"/>
      <path id="Path_2536" data-name="Path 2536" d="M-1085.813,1213.765l-.107-.062-43.388-25.049V1138.43l.108-.062,43.386-25.049.108.062,43.387,25.049v50.224l-.108.062Zm-43.061-25.361,43.061,24.862,43.063-24.862V1138.68l-43.063-24.862-43.061,24.862Z" transform="translate(102.703 49.159)" fill="#fff"/>
      <path id="Path_2537" data-name="Path 2537" d="M-1051.043,1173.828l-.108-.063-43.386-25.049v-50.224l.108-.062,43.386-25.049.108.062,43.387,25.049v50.224l-.108.062Zm-43.063-25.361,43.063,24.861,43.061-24.861v-49.724l-43.061-24.861-43.063,24.861Z" transform="translate(111.213 39.385)" fill="#fff"/>
      <path id="Path_2538" data-name="Path 2538" d="M-1016.2,1194.416l-.289-.167-43.567-25.153v-50.639l.289-.167,43.567-25.154.289.167,43.567,25.153V1169.1l-.289.167Zm-42.7-25.986,42.7,24.653,42.7-24.653v-49.307l-42.7-24.653-42.7,24.653Z" transform="translate(119.651 44.22)" fill="#fff"/>
      <path id="Path_2539" data-name="Path 2539" d="M-946.736,1133.476l-.108-.063-43.386-25.049V1058.14l.108-.062,43.386-25.049,43.5,25.111v50.224l-.108.062Zm-43.061-25.361,43.061,24.861,43.063-24.861V1058.39l-43.063-24.861L-989.8,1058.39Z" transform="translate(136.74 29.51)" fill="#fff"/>
      <path id="Path_2540" data-name="Path 2540" d="M-981.505,1153.557l-.108-.063L-1025,1128.445v-50.224l.108-.062,43.386-25.049.108.062,43.386,25.049v50.224l-.108.062Zm-43.061-25.363,43.061,24.862,43.063-24.862v-49.723l-43.063-24.862-43.061,24.862Z" transform="translate(128.231 34.424)" fill="#fff"/>
      <path id="Path_2541" data-name="Path 2541" d="M-1016.274,1133.476l-.108-.063-43.386-25.049V1058.14l.108-.062,43.386-25.049,43.495,25.111v50.224l-.108.062Zm-43.061-25.361,43.061,24.861,43.062-24.861V1058.39l-43.062-24.861-43.061,24.861Z" transform="translate(119.722 29.51)" fill="#fff"/>
      <path id="Path_2542" data-name="Path 2542" d="M-981.505,1273.994l-.108-.062L-1025,1248.883V1198.66l.108-.062,43.386-25.05.108.064,43.386,25.049v50.224l-.108.062Zm-43.061-25.361,43.061,24.861,43.063-24.861V1198.91l-43.063-24.862-43.061,24.862Z" transform="translate(128.231 63.899)" fill="#fff"/>
      <path id="Path_2543" data-name="Path 2543" d="M-1016.274,1274.213l-.108-.062-43.386-25.049v-50.224l.108-.062,43.386-25.049.108.062,43.386,25.049V1249.1l-.108.062Zm-43.063-25.361,43.063,24.862,43.062-24.862v-49.723l-43.062-24.862-43.063,24.862Z" transform="translate(119.722 63.953)" fill="#fff"/>
      <path id="Path_2544" data-name="Path 2544" d="M-911.966,1213.976l-.108-.063-43.386-25.049v-50.222l.107-.063,43.388-25.049.107.062,43.388,25.05v50.222l-.108.063Zm-43.063-25.361,43.063,24.861,43.062-24.861V1138.89l-43.062-24.861-43.063,24.861Z" transform="translate(145.249 49.211)" fill="#fff"/>
      <path id="Path_2545" data-name="Path 2545" d="M-946.736,1234.057l-.108-.063-43.386-25.049v-50.224l.108-.062,43.386-25.049.108.062,43.388,25.049v50.224l-.108.062Zm-43.061-25.363,43.061,24.862,43.063-24.862v-49.723l-43.063-24.862-43.061,24.862Z" transform="translate(136.74 54.125)" fill="#fff"/>
      <path id="Path_2546" data-name="Path 2546" d="M-1294.428,1334.012l-.108-.062-43.386-25.049v-50.224l.108-.062,43.386-25.049.108.062,43.386,25.049V1308.9l-.108.062Zm-43.061-25.361,43.061,24.862,43.063-24.862v-49.723l-43.063-24.862-43.061,24.862Z" transform="translate(51.649 78.587)" fill="#fff"/>
      <path id="Path_2547" data-name="Path 2547" d="M-1224.89,1273.571l-.108-.062-43.386-25.049v-50.224l.108-.063,43.386-25.049.108.064,43.386,25.049v50.224l-.108.062Zm-43.063-25.361,43.063,24.861,43.062-24.861v-49.724l-43.062-24.861-43.063,24.861Z" transform="translate(68.667 63.795)" fill="#fff"/>
      <path id="Path_2548" data-name="Path 2548" d="M-1259.658,1293.652l-.108-.062-43.388-25.05v-50.224l.108-.062,43.388-25.049.107.062,43.388,25.049v50.224l-.108.062Zm-43.063-25.361,43.063,24.861,43.061-24.861v-49.724l-43.061-24.861-43.063,24.861Z" transform="translate(60.158 68.71)" fill="#fff"/>
      <path id="Path_2549" data-name="Path 2549" d="M-1259.66,1414.089l-.108-.062-43.386-25.049v-50.224l.108-.062,43.386-25.05.108.063,43.386,25.049v50.224l-.107.062Zm-43.061-25.361,43.061,24.862,43.063-24.862V1339l-43.063-24.862L-1302.721,1339Z" transform="translate(60.158 98.184)" fill="#fff"/>
      <path id="Path_2550" data-name="Path 2550" d="M-1294.428,1414.308l-.108-.062-43.386-25.049v-50.224l.108-.062,43.386-25.049.108.062,43.386,25.049V1389.2l-.108.062Zm-43.061-25.361,43.061,24.862,43.063-24.862v-49.723l-43.063-24.862-43.061,24.862Z" transform="translate(51.649 98.238)" fill="#fff"/>
      <path id="Path_2551" data-name="Path 2551" d="M-1190.049,1354.57l-.289-.167-43.567-25.154v-50.64l.289-.166,43.567-25.154.289.167,43.567,25.152v50.64l-.289.167Zm-42.7-25.986,42.7,24.653,42.7-24.653v-49.308l-42.7-24.654-42.7,24.654Z" transform="translate(77.105 83.414)" fill="#fff"/>
      <path id="Path_2552" data-name="Path 2552" d="M-1224.89,1374.152l-.108-.062-43.386-25.05v-50.222l.108-.064,43.386-25.049.108.062,43.386,25.05v50.222l-.108.064Zm-43.063-25.361,43.063,24.861,43.062-24.861v-49.724l-43.062-24.861-43.063,24.861Z" transform="translate(68.667 88.411)" fill="#fff"/>
      <path id="Path_2553" data-name="Path 2553" d="M-1190.12,1253.694l-.108-.062-43.386-25.049v-50.224l.108-.062,43.386-25.05.108.063,43.386,25.049v50.224l-.108.062Zm-43.063-25.361,43.063,24.861,43.061-24.861v-49.724l-43.061-24.861-43.063,24.861Z" transform="translate(77.176 58.931)" fill="#fff"/>
      <path id="Path_2554" data-name="Path 2554" d="M-1120.583,1233.423l-.108-.062-43.386-25.05v-50.222l.108-.063,43.386-25.049.108.062,43.386,25.05v50.222l-.107.063Zm-43.061-25.361,43.061,24.861,43.063-24.861v-49.724l-43.063-24.861-43.061,24.861Z" transform="translate(94.194 53.97)" fill="#fff"/>
      <path id="Path_2555" data-name="Path 2555" d="M-1120.583,1353.86l-.108-.062-43.386-25.049v-50.224l.108-.062,43.386-25.049.108.062,43.386,25.049v50.224l-.108.062Zm-43.061-25.361,43.061,24.862,43.063-24.862v-49.723l-43.063-24.862-43.061,24.862Z" transform="translate(94.194 83.445)" fill="#fff"/>
      <path id="Path_2556" data-name="Path 2556" d="M-1155.351,1354.509l-.108-.062-43.386-25.049v-50.224l.108-.062,43.386-25.049.108.062,43.386,25.049V1329.4l-.108.062Zm-43.062-25.361,43.062,24.862,43.061-24.862v-49.723l-43.061-24.862-43.062,24.862Z" transform="translate(85.685 83.604)" fill="#fff"/>
      <path id="Path_2557" data-name="Path 2557" d="M-1155.351,1314.037l-.108-.062-43.386-25.05V1238.7l.108-.062,43.386-25.05.108.062,43.386,25.05v50.222l-.108.062Zm-43.062-25.361,43.062,24.861,43.061-24.861v-49.724l-43.061-24.861-43.062,24.861Z" transform="translate(85.685 73.699)" fill="#fff"/>
      <path id="Path_2558" data-name="Path 2558" d="M-772.818,1315.072l-.289-.167-43.567-25.152v-50.641l.289-.167,43.567-25.152.287.166,43.567,25.154v50.641l-.288.166Zm-42.7-25.986,42.7,24.655,42.7-24.655v-49.306l-42.7-24.654-42.7,24.654Z" transform="translate(179.214 73.748)" fill="#fff"/>
      <path id="Path_2559" data-name="Path 2559" d="M-807.659,1314.361l-.108-.062-43.386-25.049v-50.224l.108-.062,43.386-25.049.108.062,43.386,25.049v50.224l-.108.062ZM-850.721,1289l43.062,24.862L-764.6,1289v-49.723l-43.063-24.862-43.062,24.862Z" transform="translate(170.776 73.778)" fill="#fff"/>
      <path id="Path_2560" data-name="Path 2560" d="M-703.351,1254.132l-.108-.062-43.386-25.049V1178.8l.108-.062,43.386-25.049.108.062,43.386,25.049v50.224l-.108.062Zm-43.061-25.361,43.061,24.862,43.063-24.862v-49.723l-43.063-24.862-43.061,24.862Z" transform="translate(196.303 59.038)" fill="#fff"/>
      <path id="Path_2561" data-name="Path 2561" d="M-738.049,1274.712l-.289-.167-43.567-25.153v-50.639l.289-.167,43.567-25.153.289.167,43.567,25.154v50.639l-.289.167Zm-42.7-25.986,42.7,24.653,42.7-24.653v-49.307l-42.7-24.654-42.7,24.654Z" transform="translate(187.723 63.871)" fill="#fff"/>
      <path id="Path_2562" data-name="Path 2562" d="M-842.428,1294.28l-.108-.062-43.386-25.049v-50.224l.108-.062,43.386-25.049.108.062,43.386,25.049v50.224l-.108.062Zm-43.062-25.361,43.062,24.862,43.063-24.862V1219.2l-43.063-24.862L-885.49,1219.2Z" transform="translate(162.267 68.864)" fill="#fff"/>
      <path id="Path_2563" data-name="Path 2563" d="M-772.889,1254.132l-.108-.062-43.386-25.049V1178.8l.107-.062,43.388-25.049.108.062,43.386,25.049v50.224l-.108.062Zm-43.063-25.361,43.063,24.862,43.061-24.862v-49.723l-43.061-24.862-43.063,24.862Z" transform="translate(179.285 59.038)" fill="#fff"/>
      <path id="Path_2564" data-name="Path 2564" d="M-772.889,1213.984l-.108-.062-43.386-25.049V1138.65l.107-.062,43.388-25.05.107.064,43.388,25.049v50.224l-.108.062Zm-43.063-25.361,43.063,24.862,43.061-24.862V1138.9l-43.061-24.862-43.063,24.862Z" transform="translate(179.285 49.213)" fill="#fff"/>
      <path id="Path_2565" data-name="Path 2565" d="M-842.428,1133.7l-.108-.063-43.386-25.049v-50.222l.108-.063,43.386-25.049.108.062,43.386,25.05v50.222l-.108.062Zm-43.062-25.361,43.062,24.861,43.061-24.861v-49.725l-43.061-24.861-43.062,24.861Z" transform="translate(162.267 29.564)" fill="#fff"/>
      <path id="Path_2566" data-name="Path 2566" d="M-842.428,1213.993l-.108-.062-43.386-25.05v-50.222l.108-.063,43.386-25.049.108.062,43.386,25.05v50.222l-.108.063Zm-43.062-25.361,43.062,24.861,43.061-24.861v-49.724l-43.061-24.861-43.062,24.861Z" transform="translate(162.267 49.215)" fill="#fff"/>
      <path id="Path_2567" data-name="Path 2567" d="M-738.12,1153.755l-.108-.062-43.386-25.049V1078.42l.108-.062,43.386-25.049.108.062,43.386,25.049v50.224l-.108.062Zm-43.063-25.361,43.063,24.862,43.061-24.862V1078.67l-43.061-24.862-43.063,24.862Z" transform="translate(187.794 34.473)" fill="#fff"/>
      <path id="Path_2568" data-name="Path 2568" d="M-772.818,1174.335l-.289-.167-43.567-25.153v-50.639l.288-.167,43.568-25.153.287.167,43.567,25.153v50.639l-.288.167Zm-42.7-25.986,42.7,24.653,42.7-24.653v-49.307l-42.7-24.653-42.7,24.653Z" transform="translate(179.214 39.305)" fill="#fff"/>
      <path id="Path_2569" data-name="Path 2569" d="M-807.659,1113.624l-.108-.064-43.386-25.049v-50.224l.108-.062,43.386-25.049,43.495,25.111v50.224l-.107.062Zm-43.062-25.363,43.062,24.862,43.063-24.862v-49.723l-43.063-24.862-43.062,24.862Z" transform="translate(170.776 24.651)" fill="#fff"/>
      <path id="Path_2570" data-name="Path 2570" d="M-772.889,1053.4l-43.5-25.112V978.06l.108-.063,43.388-25.049,43.495,25.112v50.222l-.108.062Zm-43.063-25.361,43.063,24.861,43.061-24.861V978.309l-43.061-24.861-43.063,24.861Z" transform="translate(179.285 9.912)" fill="#fff"/>
      <path id="Path_2571" data-name="Path 2571" d="M-807.659,1073.476l-.108-.064-43.386-25.049V998.14l.108-.062,43.386-25.049,43.495,25.111v50.224l-.108.062Zm-43.062-25.363,43.062,24.862,43.063-24.862V998.39l-43.063-24.862-43.062,24.862Z" transform="translate(170.776 14.826)" fill="#fff"/>
      <path id="Path_2572" data-name="Path 2572" d="M-877.2,1234.051l-.108-.062-43.386-25.049v-50.224l.108-.062L-877.2,1133.6l.108.062,43.386,25.049v50.224l-.108.062Zm-43.063-25.361,43.063,24.862,43.061-24.862v-49.723L-877.2,1134.1l-43.063,24.862Z" transform="translate(153.758 54.124)" fill="#fff"/>
      <path id="Path_2573" data-name="Path 2573" d="M-877.2,1173.845l-.108-.062-43.386-25.05V1098.51l.108-.062,43.386-25.05.108.062,43.386,25.05v50.222l-.108.063Zm-43.063-25.361,43.063,24.861,43.061-24.861v-49.724L-877.2,1073.9l-43.063,24.861Z" transform="translate(153.758 39.389)" fill="#fff"/>
      <path id="Path_2574" data-name="Path 2574" d="M-1433.505,1394.446l-.108-.062L-1477,1369.335v-50.224l.108-.062,43.386-25.05.108.063,43.386,25.049v50.224l-.107.062Zm-43.061-25.361,43.061,24.862,43.063-24.862v-49.723l-43.063-24.862-43.061,24.862Z" transform="translate(17.613 93.377)" fill="#fff"/>
      <path id="Path_2575" data-name="Path 2575" d="M-1468.2,1394.732l-.289-.167-43.567-25.154v-50.639l.289-.167,43.567-25.153.289.167,43.567,25.153v50.639l-.289.167Zm-42.7-25.986,42.7,24.653,42.7-24.653v-49.308l-42.7-24.653-42.7,24.653Z" transform="translate(9.033 93.243)" fill="#fff"/>
      <path id="Path_2576" data-name="Path 2576" d="M-1363.966,1334.005l-.108-.063-43.386-25.049v-50.224l.108-.062,43.386-25.049.108.062,43.386,25.049v50.224l-.108.062Zm-43.063-25.363,43.063,24.862,43.061-24.862v-49.723l-43.061-24.862-43.063,24.862Z" transform="translate(34.631 78.585)" fill="#fff"/>
      <path id="Path_2577" data-name="Path 2577" d="M-1398.735,1354.085l-.108-.062-43.386-25.049V1278.75l.108-.062,43.386-25.049.108.062,43.386,25.049v50.224l-.108.062Zm-43.063-25.361,43.063,24.862,43.061-24.862V1279l-43.061-24.862L-1441.8,1279Z" transform="translate(26.122 83.5)" fill="#fff"/>
      <path id="Path_2578" data-name="Path 2578" d="M-1502.972,1374.651l-.289-.167-43.567-25.154v-50.639l.289-.167,43.567-25.154.289.167,43.567,25.154v50.639l-.289.167Zm-42.7-25.986,42.7,24.654,42.7-24.654v-49.307l-42.7-24.653-42.7,24.653Z" transform="translate(0.523 88.329)" fill="#fff"/>
      <path id="Path_2579" data-name="Path 2579" d="M-1503.043,1334.005l-.108-.063-43.386-25.049v-50.224l.108-.062,43.386-25.049.108.062,43.386,25.049v50.224l-.108.062Zm-43.061-25.363,43.061,24.862,43.061-24.862v-49.723l-43.061-24.862-43.061,24.862Z" transform="translate(0.594 78.585)" fill="#fff"/>
      <path id="Path_2580" data-name="Path 2580" d="M-1433.505,1334.005l-.107-.063L-1477,1308.893v-50.224l.108-.062,43.386-25.049.108.062,43.387,25.049v50.224l-.108.062Zm-43.061-25.363,43.061,24.862,43.063-24.862v-49.723l-43.063-24.862-43.061,24.862Z" transform="translate(17.613 78.585)" fill="#fff"/>
      <path id="Path_2581" data-name="Path 2581" d="M-1433.505,1293.857l-.108-.063L-1477,1268.745v-50.224l.108-.062,43.386-25.049.108.062,43.386,25.049v50.224l-.107.062Zm-43.061-25.363,43.061,24.862,43.063-24.862v-49.723l-43.063-24.862-43.061,24.862Z" transform="translate(17.613 68.76)" fill="#fff"/>
      <path id="Path_2582" data-name="Path 2582" d="M-1468.274,1293.646l-.108-.062-43.386-25.05v-50.222l.108-.064,43.386-25.049.108.062,43.386,25.05v50.222l-.108.062Zm-43.061-25.361,43.061,24.861,43.062-24.861V1218.56l-43.062-24.861-43.061,24.861Z" transform="translate(9.103 68.708)" fill="#fff"/>
      <path id="Path_2583" data-name="Path 2583" d="M-1503.043,1293.865l-.108-.062-43.386-25.049v-50.224l.108-.062,43.386-25.05.108.064,43.386,25.049v50.224l-.108.062Zm-43.063-25.361,43.063,24.862,43.061-24.862v-49.723l-43.061-24.862-43.063,24.862Z" transform="translate(0.594 68.762)" fill="#fff"/>
      <path id="Path_2584" data-name="Path 2584" d="M-1398.735,1233.628l-.108-.063-43.387-25.049v-50.224l.108-.062,43.388-25.049.107.062,43.388,25.049v50.224l-.108.062Zm-43.063-25.363,43.063,24.862,43.061-24.862v-49.723l-43.061-24.862-43.063,24.862Z" transform="translate(26.122 54.02)" fill="#fff"/>
      <path id="Path_2585" data-name="Path 2585" d="M-1433.435,1254.207l-.287-.167-43.567-25.154v-50.639l.287-.167,43.567-25.154.289.167,43.567,25.154v50.639l-.289.167Zm-42.7-25.986,42.7,24.653,42.7-24.653v-49.308l-42.7-24.653-42.7,24.653Z" transform="translate(17.542 58.853)" fill="#fff"/>
      <path id="Path_2586" data-name="Path 2586" d="M-1294.357,1334.512l-.289-.167-43.567-25.154v-50.641l.289-.166,43.567-25.153.289.167,43.567,25.152v50.641l-.289.167Zm-42.7-25.986,42.7,24.653,42.7-24.653v-49.308l-42.7-24.654-42.7,24.654Z" transform="translate(51.578 78.506)" fill="#fff"/>
      <path id="Path_2587" data-name="Path 2587" d="M-1329.2,1313.932l-.108-.062-43.386-25.049V1238.6l.108-.062,43.386-25.05.108.063,43.386,25.049v50.224l-.108.062Zm-43.062-25.361,43.062,24.862,43.061-24.862v-49.723l-43.061-24.862-43.062,24.862Z" transform="translate(43.14 73.673)" fill="#fff"/>
      <path id="Path_2588" data-name="Path 2588" d="M-1329.126,1274.283l-.289-.167-43.567-25.154v-50.639l.289-.167,43.567-25.153.289.167,43.567,25.154v50.639l-.289.167Zm-42.7-25.986,42.7,24.653,42.7-24.653v-49.307l-42.7-24.654-42.7,24.654Z" transform="translate(43.069 63.766)" fill="#fff"/>
      <path id="Path_2589" data-name="Path 2589" d="M-1363.966,1213.56l-.108-.062-43.386-25.049v-50.224l.108-.062,43.386-25.049.108.062,43.386,25.049v50.224l-.108.062Zm-43.063-25.361,43.063,24.862,43.061-24.862v-49.723l-43.061-24.862-43.063,24.862Z" transform="translate(34.631 49.109)" fill="#fff"/>
      <path id="Path_2590" data-name="Path 2590" d="M-1329.2,1233.645l-.108-.063-43.386-25.049v-50.224l.108-.062,43.386-25.049.108.062,43.386,25.049v50.224l-.108.062Zm-43.063-25.363,43.063,24.862,43.061-24.862v-49.723L-1329.2,1133.7l-43.063,24.861Z" transform="translate(43.14 54.024)" fill="#fff"/>
      <path id="Path_2591" data-name="Path 2591" d="M-772.891,1454.872l-.108-.062-43.386-25.05v-50.222l.108-.063,43.386-25.049.108.062,43.386,25.05v50.222l-.108.064Zm-43.063-25.361,43.063,24.861,43.061-24.861v-49.724l-43.061-24.861-43.063,24.861Z" transform="translate(179.285 108.165)" fill="#fff"/>
      <path id="Path_2592" data-name="Path 2592" d="M-807.66,1474.953l-.108-.064-43.386-25.049v-50.224l.107-.062,43.388-25.049.107.062,43.388,25.049v50.224l-.108.062Zm-43.063-25.363,43.063,24.862,43.061-24.862v-49.723l-43.061-24.862-43.063,24.862Z" transform="translate(170.776 113.08)" fill="#fff"/>
      <path id="Path_2593" data-name="Path 2593" d="M-911.968,1454.872l-.108-.062-43.386-25.05v-50.222l.108-.063,43.386-25.049.108.062,43.386,25.05v50.222l-.108.064Zm-43.063-25.361,43.063,24.861,43.061-24.861v-49.724l-43.061-24.861-43.063,24.861Z" transform="translate(145.248 108.165)" fill="#fff"/>
      <path id="Path_2594" data-name="Path 2594" d="M-842.43,1454.872l-.108-.063-43.386-25.049v-50.222l.108-.063,43.386-25.049.108.062,43.386,25.05v50.222l-.108.064Zm-43.061-25.361,43.061,24.861,43.063-24.861v-49.724l-43.063-24.861-43.061,24.861Z" transform="translate(162.266 108.165)" fill="#fff"/>
      <path id="Path_2595" data-name="Path 2595" d="M-842.43,1414.724l-.108-.064-43.386-25.049v-50.224l.108-.062,43.386-25.049.108.062,43.386,25.049v50.224l-.108.062Zm-43.061-25.361,43.061,24.861,43.063-24.861v-49.724l-43.063-24.861-43.061,24.861Z" transform="translate(162.266 98.34)" fill="#fff"/>
      <path id="Path_2596" data-name="Path 2596" d="M-877.2,1414.942l-.108-.062-43.386-25.049v-50.224l.108-.062L-877.2,1314.5l.108.062,43.386,25.049v50.224l-.108.062Zm-43.063-25.361,43.063,24.862,43.061-24.862v-49.723L-877.2,1315l-43.063,24.862Z" transform="translate(153.757 98.393)" fill="#fff"/>
      <path id="Path_2597" data-name="Path 2597" d="M-911.968,1414.732l-.108-.062-43.386-25.049V1339.4l.108-.062,43.386-25.049.108.062,43.386,25.049v50.224l-.108.062Zm-43.063-25.361,43.063,24.862,43.061-24.862v-49.723l-43.061-24.862-43.063,24.862Z" transform="translate(145.248 98.342)" fill="#fff"/>
      <path id="Path_2598" data-name="Path 2598" d="M-807.661,1354.5l-.108-.062-43.386-25.05v-50.222l.108-.064,43.386-25.049.108.062,43.386,25.05v50.222l-.107.063Zm-43.061-25.361,43.061,24.861,43.063-24.861v-49.724l-43.063-24.861-43.061,24.861Z" transform="translate(170.775 83.6)" fill="#fff"/>
      <path id="Path_2599" data-name="Path 2599" d="M-842.43,1374.576l-.108-.063-43.386-25.049V1299.24l.108-.062,43.386-25.049.108.062,43.386,25.049v50.224l-.108.062Zm-43.061-25.363,43.061,24.862,43.063-24.862V1299.49l-43.063-24.861-43.061,24.861Z" transform="translate(162.266 88.514)" fill="#fff"/>
      <path id="Path_2600" data-name="Path 2600" d="M-772.891,1374.571l-.108-.063-43.386-25.049v-50.224l.107-.062,43.388-25.049.108.062,43.386,25.049v50.224l-.108.062Zm-43.063-25.363,43.063,24.862,43.061-24.862v-49.723l-43.061-24.862-43.063,24.862Z" transform="translate(179.285 88.513)" fill="#fff"/>
      <path id="Path_2601" data-name="Path 2601" d="M-668.511,1154.278l-.289-.167-43.567-25.153v-50.639l.289-.167L-668.511,1053l.289.167,43.567,25.153v50.639l-.289.167Zm-42.7-25.986,42.7,24.653,42.7-24.653v-49.307l-42.7-24.654-42.7,24.654Z" transform="translate(204.741 34.397)" fill="#fff"/>
      <path id="Path_2602" data-name="Path 2602" d="M-668.584,1314.371l-.108-.063-43.386-25.049v-50.224l.108-.062,43.386-25.049.108.062,43.386,25.049v50.224l-.108.062Zm-43.062-25.363,43.062,24.862,43.063-24.862v-49.723l-43.063-24.862-43.062,24.862Z" transform="translate(204.812 73.78)" fill="#fff"/>
      <path id="Path_2603" data-name="Path 2603" d="M-668.584,1193.913l-.108-.062-43.386-25.05v-50.222l.108-.063,43.386-25.049.108.062,43.386,25.05V1168.8l-.108.062Zm-43.062-25.361,43.062,24.861,43.063-24.861v-49.724l-43.063-24.861-43.062,24.861Z" transform="translate(204.812 44.301)" fill="#fff"/>
      <path id="Path_2604" data-name="Path 2604" d="M-1085.812,1314.362l-.108-.063-43.386-25.049v-50.224l.107-.062,43.387-25.049.107.062,43.387,25.049v50.224l-.108.062ZM-1128.875,1289l43.063,24.862,43.062-24.862v-49.723l-43.062-24.862-43.062,24.862Z" transform="translate(102.704 73.778)" fill="#fff"/>
      <path id="Path_2605" data-name="Path 2605" d="M-1224.891,1193.472l-.107-.063-43.388-25.049v-50.224l.108-.062,43.386-25.049.108.062,43.387,25.049v50.224l-.108.062Zm-43.061-25.361,43.061,24.861,43.063-24.861v-49.724l-43.063-24.861-43.061,24.861Z" transform="translate(68.667 44.193)" fill="#fff"/>
      <path id="Path_2606" data-name="Path 2606" d="M-1259.66,1213.552l-.108-.062-43.386-25.049v-50.224l.108-.062,43.386-25.049.108.062,43.386,25.049v50.224l-.108.062Zm-43.061-25.361,43.061,24.862,43.063-24.862v-49.723l-43.063-24.862-43.061,24.862Z" transform="translate(60.158 49.107)" fill="#fff"/>
      <circle id="Ellipse_17" data-name="Ellipse 17" cx="3.24" cy="3.24" r="3.24" transform="translate(-1415.956 1161.063)" fill="#fff"/>
      <circle id="Ellipse_18" data-name="Ellipse 18" cx="3.24" cy="3.24" r="3.24" transform="translate(-867.266 1040.771)" fill="#fff"/>
      <circle id="Ellipse_19" data-name="Ellipse 19" cx="3.24" cy="3.24" r="3.24" transform="translate(-553.566 1084.792)" fill="#fff"/>
      <circle id="Ellipse_20" data-name="Ellipse 20" cx="3.24" cy="3.24" r="3.24" transform="translate(-769.958 1309.811)" fill="#fff"/>
      <circle id="Ellipse_21" data-name="Ellipse 21" cx="3.24" cy="3.24" r="3.24" transform="translate(-1029.687 1283.903)" fill="#fff"/>
      <path id="Path_2607" data-name="Path 2607" d="M-1264.334,1094.082a3.239,3.239,0,0,1-3.24,3.24,3.239,3.239,0,0,1-3.239-3.24,3.24,3.24,0,0,1,3.239-3.24A3.24,3.24,0,0,1-1264.334,1094.082Z" transform="translate(68.073 43.659)" fill="#fff"/>
      <path id="Path_2608" data-name="Path 2608" d="M-1542.488,1214.335a3.239,3.239,0,0,1-3.239,3.24,3.24,3.24,0,0,1-3.24-3.24,3.24,3.24,0,0,1,3.24-3.24A3.24,3.24,0,0,1-1542.488,1214.335Z" transform="translate(0 73.088)" fill="#fff"/>
      <circle id="Ellipse_22" data-name="Ellipse 22" cx="3.24" cy="3.24" r="3.24" transform="translate(-1289.297 1434.032)" fill="#fff"/>
      <circle id="Ellipse_23" data-name="Ellipse 23" cx="3.24" cy="3.24" r="3.24" transform="translate(-1419.132 1359.127)" fill="#fff"/>
      <circle id="Ellipse_24" data-name="Ellipse 24" cx="3.24" cy="3.24" r="3.24" transform="translate(-726.679 1184.739)" fill="#fff"/>
    </g>
  </g>
</svg>
