<svg xmlns="http://www.w3.org/2000/svg" width="118.691" height="102" viewBox="0 0 118.691 102">
  <g id="Reliable" transform="translate(0)">
    <g id="Group_292" data-name="Group 292" transform="translate(-5445 -1489)">
      <path id="Path_2623" data-name="Path 2623" d="M5486.53,1524.164l4.619-2h5.081l3.387.924,1.54,1.078.77,11.855v27.712l-4.157,1.693h-12.624v-40.336Z" fill="#9ff7d3"/>
      <path id="reliability" d="M116.742,48.257a6.9,6.9,0,0,0-3.28-1.912,6.9,6.9,0,0,0,1.052-3.943,7.078,7.078,0,0,0-7.075-6.7H93.668l-.014-20.632a8.114,8.114,0,1,0-16.227,0v5.46a9.854,9.854,0,0,1-.841,3.987,19.145,19.145,0,0,1-18.4-19.107V2.9a2.9,2.9,0,0,0-2.9-2.9h-29.9a2.9,2.9,0,0,0-2.9,2.9v1.97A19.146,19.146,0,0,1,3.362,23.993H2.9a2.9,2.9,0,0,0-2.9,2.9V61.664A40.342,40.342,0,0,0,76.96,78.586H101.2a5.986,5.986,0,0,0,4.243-1.788,5.694,5.694,0,0,0,1.17-6.326h.828a7.078,7.078,0,0,0,7.075-6.7,6.9,6.9,0,0,0-1.07-3.971,7.047,7.047,0,0,0,5.243-6.461,6.9,6.9,0,0,0-1.945-5.081Zm-76.4,50.266A36.9,36.9,0,0,1,3.477,61.664V27.47a22.629,22.629,0,0,0,22.486-22.6V3.477H54.709V5.409A22.635,22.635,0,0,0,74.221,27.8a9.933,9.933,0,0,1-1.356,1.041l-9.5,6.044a5.2,5.2,0,0,1-2.8.816H58.427a5.225,5.225,0,0,0-4.993-3.709H43.7a5.224,5.224,0,0,0-4.917,3.477H30.252a4.526,4.526,0,0,0-4.52,4.52v29.9a4.525,4.525,0,0,0,4.52,4.52h8.23v17.1A29.827,29.827,0,0,1,10.432,61.78V32.972A23.756,23.756,0,0,0,32.395,10.316h6.087v15.3a1.739,1.739,0,1,0,3.477,0V8.577a1.739,1.739,0,0,0-1.739-1.739H30.677a1.739,1.739,0,0,0-1.739,1.739v.734A20.268,20.268,0,0,1,8.693,29.557,1.739,1.739,0,0,0,6.955,31.3V61.779A33.3,33.3,0,0,0,40.221,95.045a1.739,1.739,0,0,0,1.739-1.739V77.712a4.743,4.743,0,0,0,1.275.178h10.2A5.209,5.209,0,0,0,57.606,75.8l1.855,1.05a13.352,13.352,0,0,0,6.573,1.734H73.09A36.836,36.836,0,0,1,40.337,98.523ZM38.482,70.936h-8.23a1.045,1.045,0,0,1-1.043-1.043v-29.9a1.045,1.045,0,0,1,1.043-1.043h8.23Zm73.13-14.373H98.059a1.739,1.739,0,1,0,0,3.477h9.5a3.476,3.476,0,0,1,3.475,3.606,3.571,3.571,0,0,1-3.6,3.349H101.3c-.039,0-.078,0-.116.005s-.077-.005-.116-.005H98.059a1.739,1.739,0,1,0,0,3.477h3.014c.039,0,.078,0,.116-.005s.077.005.116.005a2.33,2.33,0,0,1,2.318,2.274,2.246,2.246,0,0,1-.663,1.617,2.488,2.488,0,0,1-1.761.745H66.034a9.866,9.866,0,0,1-4.858-1.281L58.65,72.4V68.463a1.739,1.739,0,1,0-3.477,0v4.212a1.74,1.74,0,0,1-1.739,1.739h-10.2a1.277,1.277,0,0,1-1.275-1.275V37.207A1.74,1.74,0,0,1,43.7,35.468h9.736a1.74,1.74,0,0,1,1.739,1.739V60.35a1.739,1.739,0,0,0,3.477,0V39.177h1.916a8.675,8.675,0,0,0,4.666-1.359l9.5-6.044A13.266,13.266,0,0,0,80.9,20.529v-5.46a4.636,4.636,0,1,1,9.273,0l.014,21.212a2.9,2.9,0,0,0,2.9,2.9h14.35a3.571,3.571,0,0,1,3.6,3.349,3.476,3.476,0,0,1-3.475,3.606h-9.5a1.739,1.739,0,0,0,0,3.477h13.677a3.476,3.476,0,0,1,3.475,3.606,3.571,3.571,0,0,1-3.6,3.349Zm0,0" transform="translate(5445 1489)"/>
    </g>
  </g>
</svg>
