<svg xmlns="http://www.w3.org/2000/svg" width="79.544" height="102.373" viewBox="0 0 79.544 102.373">
  <g id="Strategy" transform="translate(0)">
    <g id="Group_291" data-name="Group 291" transform="translate(-5628 -1488)">
      <circle id="Ellipse_26" data-name="Ellipse 26" cx="8" cy="8" r="8" transform="translate(5687 1490)" fill="#9ff7d3"/>
      <circle id="Ellipse_27" data-name="Ellipse 27" cx="8" cy="8" r="8" transform="translate(5629 1573)" fill="#9ff7d3"/>
      <g id="strategy-2" data-name="strategy" transform="translate(5573.712 1488)">
        <g id="Group_290" data-name="Group 290" transform="translate(54.288)">
          <path id="Path_2610" data-name="Path 2610" d="M337.644,19.6a9.8,9.8,0,1,0-9.756-9.8A9.785,9.785,0,0,0,337.644,19.6Zm0-14.529a4.752,4.752,0,1,1-4.71,4.731A4.738,4.738,0,0,1,337.644,5.067Z" transform="translate(-270.363)"/>
          <path id="Path_2611" data-name="Path 2611" d="M64.044,393.7a9.8,9.8,0,1,0,9.756,9.8A9.785,9.785,0,0,0,64.044,393.7Zm0,14.55a4.752,4.752,0,1,1,4.71-4.752A4.738,4.738,0,0,1,64.044,408.25Z" transform="translate(-54.288 -310.923)"/>
          <path id="Path_2612" data-name="Path 2612" d="M159.691,137.377a2.531,2.531,0,0,0,1.787.736,2.568,2.568,0,0,0,1.787-.736,2.525,2.525,0,0,0,0-3.574l-5.256-5.256,5.256-5.256a2.527,2.527,0,0,0-3.574-3.574l-5.256,5.256-5.256-5.256a2.527,2.527,0,0,0-3.574,3.574l5.256,5.256L145.6,133.8a2.523,2.523,0,0,0,1.787,4.31,2.568,2.568,0,0,0,1.787-.736l5.256-5.256Z" transform="translate(-125.819 -93.96)"/>
          <path id="Path_2613" data-name="Path 2613" d="M347.165,312.216a2.525,2.525,0,0,0-3.574,0l-5.256,5.256-5.256-5.256a2.527,2.527,0,1,0-3.574,3.574l5.256,5.256L329.5,326.3a2.523,2.523,0,0,0,1.787,4.31,2.568,2.568,0,0,0,1.787-.736l5.256-5.256,5.256,5.256a2.531,2.531,0,0,0,1.787.736,2.568,2.568,0,0,0,1.787-.736,2.525,2.525,0,0,0,0-3.574l-5.256-5.256,5.256-5.256A2.525,2.525,0,0,0,347.165,312.216Z" transform="translate(-271.054 -245.986)"/>
          <path id="Path_2614" data-name="Path 2614" d="M204.965,374.116a2.525,2.525,0,0,0-3.574,0l-5.256,5.256-5.256-5.256a2.527,2.527,0,1,0-3.574,3.574l5.256,5.256L187.3,388.2a2.523,2.523,0,0,0,1.787,4.31,2.568,2.568,0,0,0,1.787-.736l5.256-5.256,5.256,5.256a2.531,2.531,0,0,0,1.787.736,2.568,2.568,0,0,0,1.787-.736,2.525,2.525,0,0,0,0-3.574l-5.256-5.256,5.256-5.256A2.564,2.564,0,0,0,204.965,374.116Z" transform="translate(-158.752 -294.871)"/>
          <path id="Path_2615" data-name="Path 2615" d="M186.911,267.746a2.523,2.523,0,1,0-2.523-2.523A2.53,2.53,0,0,0,186.911,267.746Z" transform="translate(-157.034 -207.466)"/>
          <path id="Path_2616" data-name="Path 2616" d="M103.2,304.759a2.556,2.556,0,0,0,1.388.421,2.525,2.525,0,1,0-1.388-.421Z" transform="translate(-92.016 -237.037)"/>
          <path id="Path_2617" data-name="Path 2617" d="M139.344,269.974a2.514,2.514,0,0,0,1.03,4.815,2.581,2.581,0,0,0,1.03-.21,2.51,2.51,0,0,0,1.283-3.322A2.54,2.54,0,0,0,139.344,269.974Z" transform="translate(-120.274 -213.037)"/>
          <circle id="Ellipse_25" data-name="Ellipse 25" cx="2.523" cy="2.523" r="2.523" transform="translate(37.341 55.234)"/>
          <path id="Path_2618" data-name="Path 2618" d="M91.211,350.046a2.513,2.513,0,1,0-1.787-.736A2.547,2.547,0,0,0,91.211,350.046Z" transform="translate(-81.455 -272.462)"/>
          <path id="Path_2619" data-name="Path 2619" d="M310.784,130.772l-9.756-9.756a2.525,2.525,0,0,0-3.574,0l-9.756,9.756a2.527,2.527,0,1,0,3.574,3.574l5.446-5.446v6.518A14.855,14.855,0,0,1,281.811,150.2a2.523,2.523,0,0,0,0,5.046,19.916,19.916,0,0,0,19.953-19.827V128.88l5.446,5.446a2.531,2.531,0,0,0,1.787.736,2.568,2.568,0,0,0,1.787-.736A2.5,2.5,0,0,0,310.784,130.772Z" transform="translate(-231.981 -94.987)"/>
        </g>
      </g>
    </g>
  </g>
</svg>
