<svg id="Layer_1" data-name="Layer 1" xmlns="http://www.w3.org/2000/svg" viewBox="0 0 32 32"><defs><style>.cls-1{fill:#6d81d5;}.cls-2{fill:#2944ae;}.cls-3{fill:#213993;}.cls-4{fill:#5169cd;}.cls-5{fill:#3351c5;}.cls-6{fill:#26d192;}.cls-7{fill:#1ec186;}.cls-8{fill:#9ff7d3;}</style></defs><g id="Group_40" data-name="Group 40"><g id="Group_35" data-name="Group 35"><path id="Path_18" data-name="Path 18" class="cls-1" d="M29.92,23.85a.34.34,0,0,1-.17.28l-.67.39L16,17,3,24.52l-.68-.39a.33.33,0,0,1-.16-.28l0-15.7a.34.34,0,0,1,.17-.28L15.85,0a.36.36,0,0,1,.32,0l.49.28V15.55l13.27,7.66Z"/></g><g id="Group_36" data-name="Group 36"><path id="Path_19" data-name="Path 19" class="cls-2" d="M29.87,24a.34.34,0,0,1-.12.12L16.15,32a.36.36,0,0,1-.32,0L2.27,24.13A.34.34,0,0,1,2.15,24L16,16Z"/></g><g id="Group_37" data-name="Group 37"><path id="Path_20" data-name="Path 20" class="cls-2" d="M29.87,24a.34.34,0,0,1-.12.12L16.15,32a.36.36,0,0,1-.32,0L2.27,24.13A.34.34,0,0,1,2.15,24L16,16Z"/></g><path id="Path_21" data-name="Path 21" class="cls-3" d="M23.62,20.4h0l-7.13,4.14a1,1,0,0,1-1,0L8.38,20.41h0L16,16Z"/><g id="Group_38" data-name="Group 38"><path id="Path_22" data-name="Path 22" class="cls-3" d="M29.87,24a.34.34,0,0,1-.12.12L16.15,32a.36.36,0,0,1-.32,0l-1.43-.82,11.86-6.83a.32.32,0,0,0,.12-.44.34.34,0,0,0-.12-.12L14.41,16.92h0L16,16Z"/></g><g id="Group_39" data-name="Group 39"><path id="Path_23" data-name="Path 23" class="cls-4" d="M29.92,23.85a.33.33,0,0,1-.05.16L16,16V0a.29.29,0,0,1,.16,0L29.73,7.87a.33.33,0,0,1,.16.28Z"/></g><path id="Path_24" data-name="Path 24" class="cls-5" d="M29.92,23.85a.33.33,0,0,1-.05.16l-1.94-1.12V9.13L16,2.23V0a.42.42,0,0,1,.16,0L29.73,7.87a.33.33,0,0,1,.16.28Z"/></g><g id="Group_45" data-name="Group 45"><g id="Group_41" data-name="Group 41"><path id="Path_25" data-name="Path 25" class="cls-6" d="M13.7,24.92a.59.59,0,0,0,.23,0,.83.83,0,0,1,.54,0,.57.57,0,0,0,.22,0,.7.7,0,0,0,.4-.12.89.89,0,0,1,.49-.16h.18v-.12h.43a.13.13,0,0,0,.13.13h.1V24h-.09a.14.14,0,0,0-.14.13h-.43V24h-.17a.84.84,0,0,1-.49-.16.68.68,0,0,0-.4-.13.59.59,0,0,0-.23,0,.9.9,0,0,1-.54,0,.54.54,0,0,0-.22,0,.67.67,0,0,0-.24,0,.8.8,0,0,1-.55,0,.67.67,0,0,0-.24,0,.72.72,0,0,0-.4.12h0a.36.36,0,0,0-.16.29v.35a.36.36,0,0,0,.15.3h0a.73.73,0,0,0,.4.13.67.67,0,0,0,.24,0,.86.86,0,0,1,.55,0A.69.69,0,0,0,13.7,24.92Z"/></g><path id="Path_26" data-name="Path 26" class="cls-3" d="M19.59,13.49c-3.18-2.08-3.67-4.35-3.67-4.35s-.3,2.27-3.49,4.35S7.81,17,8,19.7a4,4,0,0,0,2.71,3.51H21.35a4,4,0,0,0,2.71-3.51C24.22,17,22.78,15.56,19.59,13.49Z"/><g id="Group_42" data-name="Group 42"><path id="Path_27" data-name="Path 27" class="cls-7" d="M18.44,20a13.69,13.69,0,0,1-1-2.68l-.11-.39h0q-.06-.22-.09-.39a.92.92,0,0,0,.46-.8h-.55a.67.67,0,0,0,0-.24.92.92,0,0,0-.09-.39l1.38-1-.49-.6-1.13,1.24a1.34,1.34,0,0,0-.21-.2,1,1,0,0,1-.39-.81,1.11,1.11,0,0,1,.35-.8.8.8,0,0,0,.13-1.12l-.13-.12a1.1,1.1,0,0,1-.35-.8v-.27a1.11,1.11,0,0,1,.35-.8.8.8,0,0,0,.13-1.12l-.13-.12a1.1,1.1,0,0,1-.35-.8v-1h.29V6.54a.29.29,0,0,1,.29-.29.85.85,0,0,0,.85-.85H16.4a1,1,0,0,0,.51-.76L17,3.88H14.7l.13.79a1.06,1.06,0,0,0,.51.73H14.05a.86.86,0,0,0,.86.85h0a.29.29,0,0,1,.28.29v.19h.3v1a1.1,1.1,0,0,1-.35.8A.79.79,0,0,0,15,9.64a.34.34,0,0,0,.12.12,1.11,1.11,0,0,1,.35.8v.27a1.1,1.1,0,0,1-.35.8A.79.79,0,0,0,15,12.75a.34.34,0,0,0,.12.12,1.11,1.11,0,0,1,.35.8,1,1,0,0,1-.39.81l-.07.06-.3.37a1,1,0,0,0-.17.54.67.67,0,0,0,0,.24h-.55a.91.91,0,0,0,.35.72s0,.08,0,.12h0l-.1.47h0c0,.29-.13.63-.22,1a7.52,7.52,0,0,1-.74,2c-.74,1.2-1.3,1.13-1.3,1.87h0a1.64,1.64,0,0,0,1.65,1.56H17.9a1.78,1.78,0,0,0,1.79-1.56h0C19.69,21.09,19.18,21,18.44,20Z"/></g><g id="Group_43" data-name="Group 43"><path id="Path_28" data-name="Path 28" class="cls-8" d="M11.24,24.59a2.69,2.69,0,0,1-2.43-2.05c-.13-.79.16-2.3,3.49-3.61q.4-.15.81-.27c-.25-.26-.48-.52-.7-.79C11.22,16.4,10.77,15,11.13,14a2,2,0,0,1,1.16-1.22,2.43,2.43,0,0,1,.7-.15A7.21,7.21,0,0,1,11.9,10.2a2.39,2.39,0,0,1,.41-2.1,2.35,2.35,0,0,1,2.43-.68,6.67,6.67,0,0,1,4.6,3.89c.49,1.64-1.25,2.86-1.32,2.91l-.26-.38s1.54-1.08,1.14-2.4a6.28,6.28,0,0,0-4.25-3.57,2,2,0,0,0-2,.52,2,2,0,0,0-.31,1.72,7.06,7.06,0,0,0,1.2,2.56c1.82.13,4.19,1.42,5.87,2.34l.1.05c1.8,1,3,2.47,2.55,3.25-.2.38-.91.82-3.34-.48a16.5,16.5,0,0,1-5.43-4.71,2.26,2.26,0,0,0-.85.13,1.5,1.5,0,0,0-.89.95c-.3.84.13,2,1.21,3.38a11.16,11.16,0,0,0,.86,1,8.45,8.45,0,0,1,7.14,1.65c.55.52.77,1,.64,1.44-.09.26-.35.59-1.12.7-1.94.25-4.79-1.35-6.8-3.28a8.64,8.64,0,0,0-1,.32c-2.25.88-3.38,2-3.2,3.1a2.25,2.25,0,0,0,2,1.67ZM14,18.93c1.9,1.73,4.48,3.16,6.19,2.93.42-.05.68-.19.74-.38s-.12-.59-.52-1A8,8,0,0,0,14,18.93Zm-.11-5.75a16.52,16.52,0,0,0,5,4.25c1.9,1,2.61.87,2.73.66s-.48-1.6-2.37-2.63l-.1-.05a19.49,19.49,0,0,0-5.27-2.23Z"/></g><g id="Group_44" data-name="Group 44"><rect id="Rectangle_10" data-name="Rectangle 10" class="cls-6" x="11.01" y="23.99" width="1.37" height="0.69"/></g></g></svg>