<svg id="brandIcon" xmlns="http://www.w3.org/2000/svg" width="438.387" height="503.896" viewBox="0 0 438.387 503.896">
  <g id="Group_6" data-name="Group 6">
    <g id="Group_1" data-name="Group 1">
      <path id="Path_1" data-name="Path 1" d="M657.787,616.988a4.945,4.945,0,0,1-2.545,4.363l-10.666,6.181-205.922-118.9-205.679,118.9-10.666-6.181a4.945,4.945,0,0,1-2.545-4.363L219.4,369.737a4.945,4.945,0,0,1,2.545-4.363L436.23,242.111a5.409,5.409,0,0,1,5.091,0l7.636,4.363-.121,239.858,208.952,120.6Z" transform="translate(-219.4 -241.475)" fill="#6d81d5"/>
    </g>
    <g id="Group_2" data-name="Group 2" transform="translate(1.091 252.009)">
      <path id="Path_2" data-name="Path 2" d="M656.868,575.571a5.22,5.22,0,0,1-1.818,1.818L440.766,700.651a5.409,5.409,0,0,1-5.091,0L222.118,577.389a4.371,4.371,0,0,1-1.818-1.818L438.463,449.4Z" transform="translate(-220.3 -449.4)" fill="#2944ae"/>
    </g>
    <g id="Group_3" data-name="Group 3" transform="translate(1.091 252.009)">
      <path id="Path_3" data-name="Path 3" d="M656.868,575.571a5.22,5.22,0,0,1-1.818,1.818L440.766,700.651a5.409,5.409,0,0,1-5.091,0L222.118,577.389a4.371,4.371,0,0,1-1.818-1.818L438.463,449.4Z" transform="translate(-220.3 -449.4)" fill="#2944ae"/>
    </g>
    <path id="Path_4" data-name="Path 4" d="M541.279,518.627v.242L428.925,583.955a14.989,14.989,0,0,1-15.271,0L301.3,518.87v-.121L421.411,449.3Z" transform="translate(-202.036 -197.412)" fill="#213993"/>
    <g id="Group_4" data-name="Group 4" transform="translate(194.044 251.888)">
      <path id="Path_5" data-name="Path 5" d="M623.115,575.592a5.219,5.219,0,0,1-1.818,1.818L407.013,700.672a5.408,5.408,0,0,1-5.09,0L379.5,687.7,566.151,580.319a5.117,5.117,0,0,0,0-8.848L379.621,463.723h0L404.589,449.3Z" transform="translate(-379.5 -449.3)" fill="#213993"/>
    </g>
    <g id="Group_5" data-name="Group 5" transform="translate(219.133 0.03)">
      <path id="Path_6" data-name="Path 6" d="M619.454,616.983a4.48,4.48,0,0,1-.727,2.545L400.2,493.478l.121-251.978a4.77,4.77,0,0,1,2.545.727L616.424,365.489a4.945,4.945,0,0,1,2.545,4.363Z" transform="translate(-400.2 -241.5)" fill="#5169cd"/>
    </g>
    <path id="Path_7" data-name="Path 7" d="M619.433,616.983a4.48,4.48,0,0,1-.727,2.545l-30.664-17.7V385.245L400.3,276.527V241.5a5.091,5.091,0,0,1,2.545.727L616.4,365.489a4.945,4.945,0,0,1,2.545,4.363Z" transform="translate(-181.046 -241.47)" fill="#3351c5"/>
  </g>
  <g id="Group_11" data-name="Group 11" transform="translate(92.406 60.995)">
    <g id="Group_7" data-name="Group 7" transform="translate(65.641 312.458)">
      <path id="Path_8" data-name="Path 8" d="M374.646,568.629a12.833,12.833,0,0,0,3.757-.606,12.748,12.748,0,0,1,8.484.121,11.259,11.259,0,0,0,3.515.606,10.8,10.8,0,0,0,6.3-1.939,13.01,13.01,0,0,1,7.636-2.424h2.788v-1.818l6.787.121a2.054,2.054,0,0,0,2.182,1.939h1.454l.121-9.817h-1.454a2.054,2.054,0,0,0-2.182,1.939l-6.787-.121v-2.06h-2.788a13.12,13.12,0,0,1-7.636-2.545,10.881,10.881,0,0,0-6.3-2.06,12.831,12.831,0,0,0-3.757.606,12.39,12.39,0,0,1-8.363-.121,11.261,11.261,0,0,0-3.515-.606,12.833,12.833,0,0,0-3.757.606,12.71,12.71,0,0,1-8.727-.121,12.916,12.916,0,0,0-3.757-.727,10.8,10.8,0,0,0-6.3,1.939h0a5.656,5.656,0,0,0-2.545,4.606V561.6a5.859,5.859,0,0,0,2.424,4.606h0a10.881,10.881,0,0,0,6.3,2.06,12.833,12.833,0,0,0,3.757-.606,12.71,12.71,0,0,1,8.727.121A7.32,7.32,0,0,0,374.646,568.629Z" transform="translate(-349.8 -549.6)" fill="#26d192"/>
    </g>
    <path id="Path_9" data-name="Path 9" d="M478.969,428.679c-50.177-32.6-57.934-68.479-57.934-68.479s-4.606,35.755-54.9,68.479c-50.177,32.6-72.842,55.268-70.3,97.931S338.5,581.878,338.5,581.878H506.482s40.118-12.605,42.663-55.268C551.812,483.947,529.268,461.282,478.969,428.679Z" transform="translate(-295.641 -277.298)" fill="#213993"/>
    <g id="Group_8" data-name="Group 8" transform="translate(63.945)">
      <path id="Path_10" data-name="Path 10" d="M449.6,545.112c-4.848-6.787-12.363-30.785-15.756-42.178-1.091-3.757-1.818-6.181-1.818-6.181-.121,0-.242-.121-.364-.121-.606-2.3-1.091-4.484-1.454-6.181a14.616,14.616,0,0,0,7.272-12.6h-8.605a12.694,12.694,0,0,0,.606-3.636,16.714,16.714,0,0,0-1.333-6.181l21.7-16.12-7.757-9.454-17.817,19.513A26.967,26.967,0,0,0,421,458.816a16.2,16.2,0,0,1-6.181-12.726,16.536,16.536,0,0,1,5.575-12.6,12.558,12.558,0,0,0,0-19.635,16.536,16.536,0,0,1-5.575-12.6v-4.121a16.536,16.536,0,0,1,5.575-12.6,12.558,12.558,0,0,0,0-19.635,16.536,16.536,0,0,1-5.575-12.6V336.645H419.3v-3.03a4.554,4.554,0,0,1,4.484-4.484,13.5,13.5,0,0,0,13.453-13.453H417.364a16.477,16.477,0,0,0,8.121-12l1.7-11.878h-36.6l2.06,12.363a16.6,16.6,0,0,0,8,11.514H380.4a13.5,13.5,0,0,0,13.453,13.453h0a4.554,4.554,0,0,1,4.484,4.484v3.03h4.727V352.28a16.537,16.537,0,0,1-5.575,12.6,12.558,12.558,0,0,0,0,19.635,16.537,16.537,0,0,1,5.575,12.6v4.121a16.537,16.537,0,0,1-5.575,12.6,12.558,12.558,0,0,0,0,19.635,16.537,16.537,0,0,1,5.575,12.6,16.2,16.2,0,0,1-6.181,12.726,6.924,6.924,0,0,0-.97.848l-4.848,5.939a16.967,16.967,0,0,0-2.666,8.605,12.694,12.694,0,0,0,.606,3.636H380.4a14.477,14.477,0,0,0,5.575,11.393l-.364,1.818h-.121l-1.7,7.393h.364c-.848,4.484-2.06,9.817-3.515,15.393-2.909,11.151-6.787,23.15-11.757,31.149-11.757,19.029-20.483,17.817-20.483,29.573h0c0,13.575,12.484,24.483,26.058,24.483h66.419c13.575,0,28.24-11.029,28.24-24.483h0C469.359,562.928,461.239,561.231,449.6,545.112Z" transform="translate(-348.4 -291.8)" fill="#1ec186"/>
    </g>
    <g id="Group_9" data-name="Group 9" transform="translate(13.173 54.761)">
      <path id="Path_11" data-name="Path 11" d="M345.04,608.5c-16.12-.848-35.27-14.059-38.179-32.482-1.939-12.363,2.545-36.239,55.026-56.722a130.514,130.514,0,0,1,12.726-4.242c-4-4.121-7.636-8.242-11.029-12.484-18.665-23.271-25.816-44.6-20.241-60.237,3.394-9.575,9.575-16,18.3-19.271a36.474,36.474,0,0,1,11.029-2.3c-8.848-13.453-14.908-26.786-17.211-38.785-2.666-13.575-.485-24.725,6.424-33.209,8.484-10.3,21.816-13.938,38.3-10.545,30.664,6.181,64.6,34.785,72.479,61.207,7.757,25.937-19.635,45.087-20.847,45.814L447.7,439.3c.242-.121,24.24-16.968,17.938-37.815-7.151-23.756-39.027-50.42-67.025-56.116-9.575-1.939-22.786-2.06-31.27,8.121-5.454,6.666-7.151,15.756-4.969,27.149,2.424,12.241,9.211,26.18,19.029,40.239,28.6,2.06,65.934,22.422,92.356,36.724l1.576.848c28.482,15.514,46.905,38.906,40.36,51.147-3.272,6.06-14.423,12.969-52.723-7.393-33.694-17.938-65.207-46.057-85.447-74.3a38.5,38.5,0,0,0-13.332,2.06c-6.666,2.545-11.272,7.514-14.059,15.029-4.727,13.211,1.939,32.119,19.029,53.329a169.771,169.771,0,0,0,13.575,14.908c49.814-10.787,94.174,8.727,112.475,25.937,8.605,8.12,12.12,16.12,10.06,22.665-1.333,4.121-5.454,9.333-17.574,10.908-30.543,4-75.509-21.21-107.142-51.632a135.709,135.709,0,0,0-16,5.091c-35.391,13.817-53.329,31.149-50.541,48.844,2.3,14.3,18.544,25.695,31.512,26.3Zm44.239-89.2c29.816,27.27,70.418,49.814,97.446,46.178,6.545-.849,10.787-3.03,11.635-5.939,1.212-3.636-1.818-9.333-8.12-15.271C472.665,527.775,432.426,511.9,389.279,519.291Zm-1.818-90.538c19.756,25.574,48.844,50.784,79.023,66.9,29.816,15.877,41.087,13.7,42.905,10.423,2.909-5.454-7.515-25.089-37.451-41.33l-1.576-.848C447.819,451.539,413.883,433.117,387.461,428.754Z" transform="translate(-306.51 -336.982)" fill="#9ff7d3"/>
    </g>
    <g id="Group_10" data-name="Group 10" transform="translate(48.188 316.821)">
      <rect id="Rectangle_1" data-name="Rectangle 1" width="21.695" height="10.787" fill="#26d192"/>
    </g>
  </g>
</svg>
