<svg id="email" xmlns="http://www.w3.org/2000/svg" width="35.632" height="29.082" viewBox="0 0 35.632 29.082">
  <g id="Mail" transform="translate(0 0)">
    <path id="Combined_Shape" data-name="Combined Shape" d="M30.918,29.082H4.715A4.721,4.721,0,0,1,0,24.367V4.774A1.439,1.439,0,0,0,.614,5.894L16.991,17.357a1.437,1.437,0,0,0,1.651,0L35.019,5.894a1.428,1.428,0,0,0,.613-1.132v19.6A4.72,4.72,0,0,1,30.918,29.082Zm-13.1-14.66h0L2.265,3.536A1.439,1.439,0,0,0,0,4.638,4.732,4.732,0,0,1,4.715,0h26.2a4.732,4.732,0,0,1,4.714,4.654,1.44,1.44,0,0,0-2.264-1.119L17.816,14.421Z" transform="translate(0 0)" fill="#fff"/>
  </g>
</svg>
