<svg id="Layer_1" data-name="Layer 1" xmlns="http://www.w3.org/2000/svg" viewBox="0 0 256 256"><defs><style>.cls-1{fill:#213993;}</style></defs><g id="Group_111" data-name="Group 111"><path id="Path_2505" data-name="Path 2505" class="cls-1" d="M255.62,132.12a23.16,23.16,0,0,0-26.35-19.46c-.41.06-.82.14-1.23.22a23.16,23.16,0,0,0-18.12,27.28c0,.22.09.44.14.65a2.49,2.49,0,0,1-1.32,3.27l-.22.08q-36.08,19.14-72.09,38.39a2.43,2.43,0,0,1-3.41-.35,1.85,1.85,0,0,1-.19-.27,23,23,0,0,0-37.41,2.93c-.87,1.31-1.41,1.62-2.89.84-21.66-11.49-43.2-23.24-65.12-34.2a31.06,31.06,0,0,1-12.55-34,7.24,7.24,0,0,1,8.31-6A7.16,7.16,0,0,1,26.46,113c25.63,13.61,51.43,26.92,77,40.63a16.37,16.37,0,0,0,16.82,0c20.7-11,41.54-21.71,62.34-32.51q30-15.59,60-31.14A5.44,5.44,0,0,0,246,85.12a5.37,5.37,0,0,0-3.23-4.93q-.7-.41-1.44-.75C212.22,65.58,182.8,52.35,154,37.87a18.29,18.29,0,0,0-17-.07Q75.83,68.19,14.72,98.66A23.27,23.27,0,0,0,6.4,105,33.09,33.09,0,0,0,.06,126.56,34.19,34.19,0,0,0,1.22,136a39.07,39.07,0,0,0,19.25,27.47Q55,181.36,89.71,199.08A5.37,5.37,0,0,1,92.8,203a23.15,23.15,0,0,0,45.4-3.46,3.76,3.76,0,0,1,2.47-3.38q37.61-20.26,75.14-40.72a4.23,4.23,0,0,1,4.84.08,23.22,23.22,0,0,0,35-23.41ZM115.05,204.39a7.39,7.39,0,0,1-7.2-7.56,7.27,7.27,0,0,1,7.35-7.19h.14a7.27,7.27,0,0,1,7.19,7.36v.13a7.49,7.49,0,0,1-7.47,7.27ZM232.66,143.1a7.61,7.61,0,0,1-7.46-7.41,7.45,7.45,0,1,1,14.89,0,7.63,7.63,0,0,1-7.41,7.43Z"/></g></svg>