<svg id="Google" xmlns="http://www.w3.org/2000/svg" width="44.676" height="27.923" viewBox="0 0 44.676 27.923">
  <path id="Icon_awesome-google-plus-g" data-name="Icon awesome-google-plus-g" d="M28.042,16.461a11.843,11.843,0,0,1,.229,2.324c0,7.981-5.352,13.638-13.409,13.638a13.961,13.961,0,0,1,0-27.923,13.336,13.336,0,0,1,9.352,3.657l-3.79,3.638a7.839,7.839,0,0,0-5.562-2.152,8.82,8.82,0,0,0,0,17.637c5.524,0,7.6-3.981,7.923-6.019H14.861v-4.8h13.18Zm13.482.468V12.877H37.452V16.93H33.4V21h4.053v4.053h4.072V21h4.053V16.93H41.524Z" transform="translate(-0.9 -4.5)" fill="#bebebe"/>
</svg>
