<svg xmlns="http://www.w3.org/2000/svg" width="22.693" height="22.693" viewBox="0 0 22.693 22.693">
  <path id="Icon_simple-linkedin" data-name="Icon simple-linkedin" d="M19.334,19.339H15.973V14.073c0-1.256-.026-2.872-1.751-2.872-1.752,0-2.02,1.366-2.02,2.779v5.358H8.842V8.51H12.07V9.986h.043A3.541,3.541,0,0,1,15.3,8.237c3.4,0,4.035,2.241,4.035,5.158v5.944ZM5.046,7.028A1.952,1.952,0,1,1,7,5.076,1.95,1.95,0,0,1,5.046,7.028Zm1.685,12.31H3.361V8.51h3.37ZM21.015,0H1.675A1.654,1.654,0,0,0,0,1.635V21.058a1.654,1.654,0,0,0,1.675,1.635H21.012a1.66,1.66,0,0,0,1.681-1.635V1.635A1.661,1.661,0,0,0,21.012,0Z" fill="#bfc5d1"/>
</svg>
