<svg id="Instagram" xmlns="http://www.w3.org/2000/svg" width="31.025" height="31.025" viewBox="0 0 31.025 31.025">
  <path id="Path_2502" data-name="Path 2502" d="M10.756,3H26.269a7.756,7.756,0,0,1,7.756,7.756V26.269a7.756,7.756,0,0,1-7.756,7.756H10.756A7.756,7.756,0,0,1,3,26.269V10.756A7.756,7.756,0,0,1,10.756,3Z" transform="translate(-3 -3)" fill="#bebebe"/>
  <path id="Path_2503" data-name="Path 2503" d="M24.408,17.23A6.205,6.205,0,1,1,19.18,12,6.205,6.205,0,0,1,24.408,17.23Z" transform="translate(-2.69 -2.695)" fill="none" stroke="#37383e" stroke-linecap="round" stroke-linejoin="round" stroke-width="3"/>
  <path id="Path_2504" data-name="Path 2504" d="M26.25,9.75h0" transform="translate(-2.206 -2.77)" fill="none" stroke="#37383e" stroke-linecap="round" stroke-linejoin="round" stroke-width="3"/>
</svg>
