<svg id="Layer_1" data-name="Layer 1" xmlns="http://www.w3.org/2000/svg" viewBox="0 0 256 256"><defs><style>.cls-1{fill:#213993;}</style></defs><path id="medium" class="cls-1" d="M253.75,39.57a7.5,7.5,0,0,0-5.24-12.86H173.58a7.5,7.5,0,0,0-7.5,7.5V70.29L138,143l-51.5-112A7.51,7.51,0,0,0,79.7,26.7H9.48A7.5,7.5,0,0,0,3.67,38.94L35.41,77.8v96L1.61,217.16A7.5,7.5,0,0,0,7.52,229.3H78.3a7.5,7.5,0,0,0,5.92-12.14L50.41,173.8V107.13l58.52,118a7.48,7.48,0,0,0,6.71,4.16H116a7.51,7.51,0,0,0,6.65-4.79L166,111.94v79.34l-20.17,25.88a7.5,7.5,0,0,0,5.92,12.14h93.64a7.5,7.5,0,0,0,5.91-12.14l-20.17-25.88V61.58Z"/><path id="medium-2" data-name="medium" class="cls-1" d="M253.74,39.51a7.47,7.47,0,0,0-5.2-12.81H174a7.46,7.46,0,0,0-7.46,7.46V70.05l-27.91,72.37L87.39,31a7.48,7.48,0,0,0-6.78-4.34H10.77A7.46,7.46,0,0,0,5,38.88L36.56,77.53V173L2.94,216.15a7.45,7.45,0,0,0,5.88,12h70.4a7.46,7.46,0,0,0,5.88-12L51.48,173V106.7l58.21,117.35a7.46,7.46,0,0,0,6.69,4.14h.34a7.43,7.43,0,0,0,6.61-4.77l43.18-111.89v78.88l-20.07,25.71a7.46,7.46,0,0,0,5.88,12h93.14a7.47,7.47,0,0,0,5.88-12l-20.07-25.71V61.4ZM24.1,213.27,44,187.71,64,213.27Zm91.42-11L50.71,71.53l-.06-.06c-.09-.17-.19-.33-.29-.5l-.1-.15c-.12-.19-.25-.37-.39-.55l-.06-.08h0L26.52,41.68H75.85L131.12,161.9Zm102.42-4.66,12.25,15.71H167.6l12.25-15.71a7.49,7.49,0,0,0,1.58-4.59V41.62h48.76L218.62,52.9a7.49,7.49,0,0,0-2.25,5.35V193a7.41,7.41,0,0,0,1.57,4.61Z"/></svg>