<svg id="Phone" xmlns="http://www.w3.org/2000/svg" width="35.568" height="35.632" viewBox="0 0 35.568 35.632">
  <path id="Shape" d="M31.5,21.2l-.013,0a19.682,19.682,0,0,1-4.3-1.071A4.74,4.74,0,0,0,22.2,21.191L22.2,21.2,20.9,22.491a24.875,24.875,0,0,1-7.826-7.826l1.294-1.294.006-.006a4.738,4.738,0,0,0,1.065-4.983,19.694,19.694,0,0,1-1.072-4.3l0-.013A4.739,4.739,0,0,0,9.687,0H4.722c-.14,0-.281.007-.421.019A4.726,4.726,0,0,0,.02,5.152l0,.022A34.126,34.126,0,0,0,5.288,20.05a33.706,33.706,0,0,0,10.3,10.3,34.132,34.132,0,0,0,14.806,5.265l.026,0c.141.013.285.019.428.019h.017a4.727,4.727,0,0,0,4.707-4.74V25.978A4.726,4.726,0,0,0,31.5,21.2Z" fill="#fff"/>
</svg>
