<svg id="Layer_1" data-name="Layer 1" xmlns="http://www.w3.org/2000/svg" viewBox="0 0 256 256"><defs><style>.cls-1{fill:#213993;}</style></defs><path id="Icon_awesome-twitter" data-name="Icon awesome-twitter" class="cls-1" d="M229.69,75.82c.16,2.27.16,4.54.16,6.82,0,69.36-52.78,149.28-149.28,149.28A148.22,148.22,0,0,1,0,208.37a109.5,109.5,0,0,0,12.67.65A105.1,105.1,0,0,0,77.81,186.6a52.55,52.55,0,0,1-49.06-36.37,65.79,65.79,0,0,0,9.91.81,55,55,0,0,0,13.81-1.79A52.48,52.48,0,0,1,10.39,97.76v-.65a52.81,52.81,0,0,0,23.72,6.66A52.56,52.56,0,0,1,17.86,33.59a149.14,149.14,0,0,0,108.23,54.9,59.22,59.22,0,0,1-1.3-12,52.52,52.52,0,0,1,90.73-35.9,103.22,103.22,0,0,0,33.3-12.67,52.31,52.31,0,0,1-23,28.92A105.31,105.31,0,0,0,256,48.69a112.67,112.67,0,0,1-26.32,27.13Z"/></svg>