<svg id="Twitter" xmlns="http://www.w3.org/2000/svg" width="37.23" height="30.238" viewBox="0 0 37.23 30.238">
  <path id="Icon_awesome-twitter" data-name="Icon awesome-twitter" d="M33.4,10.917c.024.331.024.661.024.992,0,10.087-7.678,21.71-21.71,21.71A21.563,21.563,0,0,1,0,30.193a15.785,15.785,0,0,0,1.843.094,15.281,15.281,0,0,0,9.473-3.26,7.644,7.644,0,0,1-7.134-5.292,9.622,9.622,0,0,0,1.441.118,8.07,8.07,0,0,0,2.008-.26,7.631,7.631,0,0,1-6.119-7.489v-.094a7.685,7.685,0,0,0,3.449.968A7.642,7.642,0,0,1,2.6,4.775a21.689,21.689,0,0,0,15.733,7.985,8.614,8.614,0,0,1-.189-1.748A7.638,7.638,0,0,1,31.348,5.79a15.023,15.023,0,0,0,4.843-1.843,7.61,7.61,0,0,1-3.355,4.2A15.3,15.3,0,0,0,37.23,6.972,16.4,16.4,0,0,1,33.4,10.917Z" transform="translate(0 -3.381)" fill="#bebebe"/>
</svg>
